<svg width="100" height="100" viewBox="0 0 100 100" fill="none" xmlns="http://www.w3.org/2000/svg">
<path d="M84.5177 35.8924C84.7308 36.4826 84.5174 42.5578 84.5172 43.7624L84.5158 66.7334C84.5161 70.5318 84.6087 74.3545 84.5166 78.1511C84.4131 82.4135 79.5618 81.2471 76.5252 81.2468L34.4105 81.2471C29.1788 81.2473 23.9233 81.3553 18.6943 81.2349C14.65 81.1417 15.4528 77.8975 15.452 74.8614L15.4523 25.8806C15.4526 22.8514 15.3152 19.046 19.4 18.7559C21.8154 18.5843 24.2907 18.6927 26.7139 18.6922L64.3491 18.7022C65.1045 18.7032 66.7882 18.3836 67.3914 18.9125C68.5657 19.7299 69.6721 21.0519 70.6927 22.0767L77.2464 28.7122C79.6291 31.1385 82.1935 33.4171 84.5177 35.8924ZM30.7968 49.8519L26.5667 49.8415C25.9704 49.8389 25.2637 49.755 24.6843 49.8519C23.5081 50.4429 24.3442 51.6535 24.9265 52.3126C27.3512 55.0502 29.6743 57.8624 32.0604 60.6322C32.8896 61.6356 33.6265 61.5298 34.7021 60.8845C42.0891 68.1769 52.8155 70.2822 61.6873 64.0426C63.0133 63.1099 64.0868 61.8532 65.4052 60.9395L65.4859 60.8845C66.4295 61.755 67.3421 61.5348 68.1626 60.6322C70.1509 57.7324 73.9901 55.0443 76.1221 52.0116C77.7377 49.7137 74.1534 49.733 73.0367 49.7335L69.288 49.7396C69.1896 39.5114 60.339 30.8039 50.0824 30.9215C39.388 31.0437 31.3614 39.3552 30.7968 49.8519Z" fill="#1DA079"/>
<path d="M67.3915 18.9121C68.5659 19.7295 69.6722 21.0515 70.6928 22.0762L77.2465 28.7118C79.6292 31.1381 82.1937 33.4167 84.5178 35.892C82.4544 35.9417 71.4466 36.1349 70.0777 35.7189C67.0903 34.8113 67.3846 31.5761 67.3917 29.1138L67.3915 24.5965C67.3917 23.8186 67.2268 19.4083 67.3915 18.9121Z" fill="#6FB98F"/>
<path d="M50.4402 40.0146H51.6506V42.0005C52.6632 42.2348 53.4263 42.6106 54.3069 43.1553C54.8987 42.7623 55.4482 42.2353 55.9998 41.7838C56.7311 42.4778 57.4209 43.2125 58.1159 43.942C57.5865 44.4679 57.0868 44.9438 56.7245 45.6063C57.0649 46.3458 57.3444 47.1163 57.6411 47.8743C58.1786 47.9733 58.6836 48.1162 59.2006 48.2928V51.2701C58.6707 51.3469 58.1588 51.4361 57.6411 51.5729C57.256 52.3135 56.9619 53.0302 56.7245 53.8314C57.0289 54.4439 57.4696 54.9852 57.875 55.5336C57.3581 56.2432 56.4392 57.0391 55.7801 57.6447C55.2338 57.1394 54.6788 56.6942 54.0473 56.2985C53.2365 56.5965 52.4454 56.984 51.6506 57.3247C51.6241 57.9967 51.5553 58.6425 51.4619 59.3076H49.49H48.7637C48.6002 58.6542 48.5049 57.9964 48.4633 57.3247L46.2133 56.2985C45.5426 56.7056 44.9232 57.1232 44.3348 57.6447C43.7036 56.9009 42.9707 56.2527 42.3122 55.5336C42.7804 54.9719 43.2814 54.4349 43.6962 53.8314C43.2949 53.093 42.9418 52.3341 42.5864 51.5729C41.9861 51.5261 41.3943 51.4133 40.8104 51.2701C40.8527 50.2773 40.7516 49.288 40.8104 48.2928C40.8265 48.2867 40.8427 48.2803 40.8588 48.2748L40.9403 48.2464C41.4745 48.0575 42.0303 47.9738 42.5864 47.8743C42.7971 47.0721 43.1512 46.3535 43.5022 45.6063C43.0451 45.0179 42.5409 44.483 42.03 43.942C42.6623 43.1802 43.44 42.4955 44.1332 41.7838C44.6903 42.1972 45.1847 42.68 45.6882 43.1553C46.6164 42.7041 47.4628 42.2859 48.4633 42.0005V40.0146H50.4402ZM49.7674 44.7664C43.4749 45.5499 44.4264 54.7051 50.4402 54.2737C57.0442 53.0292 55.436 44.2043 49.7674 44.7664Z" fill="#1DA079"/>
</svg>
