<svg width="543" height="82" viewBox="0 0 543 82" fill="none" xmlns="http://www.w3.org/2000/svg">
<path d="M0.0327148 56.2064V6.2572C0.0327148 3.20986 2.48388 0.758789 5.53115 0.758789C8.51216 0.758789 10.8971 3.20987 10.8971 6.2572V56.2064C10.9633 59.2538 8.51216 61.7048 5.53115 61.7048C2.48387 61.7048 0.0327148 59.2538 0.0327148 56.2064Z" fill="#161613"/>
<path d="M25.4526 56.2046V23.6117C25.4526 20.5644 27.9038 18.1133 30.9511 18.1133C33.9321 18.1133 36.317 20.5644 36.317 23.6117V56.2046C36.317 59.2519 33.9321 61.7029 30.9511 61.7029C27.9038 61.7029 25.4526 59.2519 25.4526 56.2046Z" fill="#161613"/>
<path d="M55.7938 64.6855C57.1851 64.6855 58.5099 65.2155 59.5036 66.2092C62.7497 69.389 66.062 70.3164 70.4341 70.3164C74.7401 70.3164 78.0524 69.389 81.2322 66.2754C82.2259 65.4143 83.5508 64.8181 84.942 64.8181C87.9894 64.8181 90.3741 67.2691 90.3741 70.2502C90.3741 71.9063 89.6454 73.2975 88.5855 74.3575C83.2196 79.1934 76.9262 81.247 70.4341 81.247C63.942 81.247 57.5163 79.1271 52.0841 74.1587C51.0242 73.0988 50.2954 71.7076 50.2954 70.184C50.2954 67.2029 52.6803 64.6855 55.7938 64.6855Z" fill="#1DA079"/>
<path d="M70.4341 17.7168C58.3111 17.7168 48.1758 27.6535 48.1758 39.8431C48.1758 52.2307 58.3111 62.1674 70.4341 62.1674C82.6237 62.1674 92.5604 52.2307 92.5604 39.8431C92.5604 27.6535 82.6237 17.7168 70.4341 17.7168ZM70.4341 51.2371C64.2071 51.2371 59.0397 46.2022 59.0397 39.8431C59.0397 33.616 64.2071 28.5812 70.4341 28.5812C76.5952 28.5812 81.63 33.616 81.63 39.8431C81.63 46.2022 76.5952 51.2371 70.4341 51.2371Z" fill="#161613"/>
<path d="M81.3647 11.8874C81.3647 8.70762 83.9483 6.12402 87.1281 6.12402C90.2417 6.12402 92.759 8.70762 92.759 11.8874V11.9537C92.759 15.1334 90.2416 17.717 87.1281 17.717C83.9483 17.717 81.3647 15.1334 81.3647 11.9537V11.8874Z" fill="#1DA079"/>
<path d="M141.231 23.2139C137.299 19.8012 132.181 17.724 126.645 17.724H126.777C120.55 17.724 115.383 12.4843 115.383 6.25722C115.383 3.20972 112.998 0.758789 110.017 0.758789C106.97 0.758789 104.519 3.20972 104.519 6.25722V56.2126C104.519 59.2601 106.97 61.711 110.017 61.711C112.998 61.711 115.383 59.2601 115.383 56.2126V39.8503C115.383 33.6232 120.484 28.5883 126.645 28.5883C132.872 28.5883 137.973 33.6232 137.973 39.8503V56.2126C137.973 59.2601 140.424 61.711 143.471 61.711C146.452 61.711 148.903 59.2601 148.903 56.2126V39.8503C148.903 33.2274 145.907 27.2744 141.231 23.2139Z" fill="#161613"/>
<path d="M126.645 17.724C122.537 17.724 118.695 18.8502 115.383 20.771V6.25722C115.383 3.20972 112.998 0.758789 110.017 0.758789C106.97 0.758789 104.519 3.20972 104.519 6.25722V39.8377H104.522C104.522 33.1214 107.515 27.1095 112.234 23.0459C116.16 26.4838 121.26 28.5883 126.777 28.5883C130.885 28.5883 134.727 27.4621 138.039 25.5413C139.174 24.8675 140.238 24.0831 141.231 23.2139C137.299 19.8012 132.181 17.724 126.645 17.724Z" fill="#97D697"/>
<path d="M115.383 6.25723C115.383 3.20973 112.998 0.758789 110.017 0.758789C106.97 0.758789 104.519 3.20973 104.519 6.25723C104.519 12.8998 107.532 18.9297 112.234 23.0459C113.214 22.2018 114.264 21.4354 115.383 20.771C118.695 18.8502 122.537 17.724 126.645 17.724H126.777C120.55 17.724 115.383 12.4843 115.383 6.25723Z" fill="#1DA079"/>
<path d="M183.324 51.2672C183.294 51.2672 183.266 51.2632 183.237 51.2632H183.324C177.131 51.2632 172.072 46.2041 172.072 39.8364V29.0205H177.829C180.867 29.0205 183.298 26.6015 183.322 23.5688C183.298 20.5366 180.867 18.1176 177.829 18.1176H172.072V11.7499C172.072 8.71181 169.652 6.28065 166.62 6.25684C163.588 6.28065 161.168 8.71182 161.168 11.7499V39.8364C161.168 52.2002 171.077 62.1289 183.258 62.1644C183.28 62.1639 183.302 62.1603 183.324 62.1594C186.306 62.0296 188.681 59.6532 188.728 56.6709C188.681 53.6889 186.306 51.3135 183.324 51.2672Z" fill="#161613"/>
<path d="M172.072 18.1172H166.62C163.609 18.1172 161.168 20.5579 161.168 23.5687C161.168 26.5795 163.609 29.0202 166.62 29.0202H172.072V18.1172Z" fill="#97D697"/>
<path d="M177.829 29.0202C180.867 29.0202 183.298 26.6011 183.322 23.5684C183.298 20.5362 180.867 18.1172 177.829 18.1172H172.072V29.0202H177.829Z" fill="#1DA079"/>
<path d="M235.062 24.1416C237.115 26.3278 237.115 29.6401 235.062 31.8261C232.876 33.8798 229.563 33.8798 227.377 31.8924C225.39 29.7725 222.475 28.5801 219.428 28.5801C213.267 28.5801 208.166 33.6148 208.166 39.8419C208.166 46.0028 213.267 51.0374 219.428 51.0374C222.475 51.0374 225.39 49.845 227.377 47.7251C229.563 45.7378 232.876 45.7378 235.062 47.8576C237.115 50.0437 237.182 53.356 235.062 55.5421L234.929 55.6084C231.021 59.5831 225.456 61.968 219.428 61.968C207.239 61.968 197.302 52.0311 197.302 39.8419C197.302 27.6527 207.239 17.7158 219.428 17.7158C225.456 17.7158 231.021 20.1007 235.062 24.1416Z" fill="#161613"/>
<path d="M246.738 39.8419C246.738 27.6527 256.874 17.7158 268.997 17.7158C281.186 17.7158 291.123 27.6527 291.123 39.8419C291.123 52.2299 281.186 62.1667 268.997 62.1667C256.874 62.1667 246.738 52.2299 246.738 39.8419ZM268.997 51.2362C275.158 51.2362 280.193 46.2015 280.193 39.8419C280.193 33.6148 275.158 28.5802 268.997 28.5802C262.77 28.5802 257.603 33.6148 257.603 39.8419C257.603 46.2015 262.77 51.2362 268.997 51.2362Z" fill="#161613"/>
<path d="M302.271 56.2046V39.8419C302.271 27.6527 312.207 17.7158 324.397 17.7158C336.52 17.7158 346.655 27.6527 346.655 39.8419V56.2046C346.655 59.2519 344.204 61.703 341.223 61.703C338.176 61.703 335.725 59.2519 335.725 56.2046V39.8419C335.725 33.6148 330.624 28.5802 324.397 28.5802C318.236 28.5802 313.135 33.6148 313.135 39.8419V56.2046C313.135 59.2519 310.75 61.703 307.769 61.703C304.722 61.703 302.271 59.2519 302.271 56.2046Z" fill="#161613"/>
<path d="M396.357 18.3125C394.235 18.3125 392.378 19.44 391.383 21.2971L378.747 45.1385L366.182 21.2971C365.187 19.44 363.33 18.3125 361.208 18.3125C358.09 18.3125 355.57 20.8326 355.57 23.8837C355.57 24.8118 355.836 25.7403 356.234 26.4699L373.742 59.6298C373.763 59.6685 373.79 59.7031 373.812 59.7412C374.374 60.7668 375.26 61.5803 376.335 62.0767C376.388 62.1014 376.441 62.1275 376.495 62.1504C376.664 62.2236 376.838 62.2856 377.015 62.3422C377.14 62.3818 377.269 62.4141 377.398 62.4455C377.511 62.4725 377.624 62.499 377.739 62.5192C377.852 62.5394 377.967 62.5556 378.083 62.5691C378.248 62.5879 378.414 62.601 378.582 62.605C378.628 62.6059 378.67 62.6144 378.716 62.6144C378.727 62.6144 378.737 62.6127 378.748 62.6127C378.759 62.6127 378.771 62.6144 378.782 62.6144C378.86 62.6144 378.934 62.6023 379.011 62.5992C379.117 62.5951 379.222 62.5879 379.327 62.5785C381.218 62.4024 382.842 61.331 383.69 59.6963L401.331 26.4699C401.729 25.7403 401.994 24.8118 401.994 23.8837C401.994 20.8326 399.474 18.3125 396.357 18.3125Z" fill="#161613"/>
<path d="M396.357 18.3125C394.235 18.3125 392.378 19.44 391.383 21.2971L378.747 45.1385L383.624 54.3906C384.088 55.1866 384.287 56.0487 384.287 56.9772C384.287 59.8832 382.096 62.2685 379.327 62.5785C381.218 62.4024 382.842 61.331 383.69 59.6963L401.331 26.4699C401.729 25.7403 401.994 24.8118 401.994 23.8837C401.994 20.8326 399.474 18.3125 396.357 18.3125Z" fill="#1DA079"/>
<path d="M384.287 56.9774C384.287 56.0488 384.088 55.1868 383.624 54.3908L378.747 45.1387L373.808 54.4573C373.41 55.2528 373.145 56.1153 373.145 57.1099C373.145 58.0735 373.387 58.9661 373.812 59.7414C374.38 60.7391 375.259 61.5702 376.335 62.0769C376.388 62.1016 376.441 62.1277 376.495 62.1506C376.664 62.2238 376.838 62.2858 377.015 62.3424C377.14 62.3819 377.269 62.4143 377.398 62.4457C377.511 62.4727 377.624 62.4992 377.739 62.5194C377.852 62.5396 377.967 62.5558 378.083 62.5693C378.247 62.5881 378.414 62.6012 378.582 62.6052C378.638 62.607 378.692 62.6128 378.748 62.6128C378.836 62.6124 378.923 62.6043 379.01 62.5994C379.117 62.5953 379.222 62.5881 379.327 62.5787C382.096 62.2687 384.287 59.8834 384.287 56.9774Z" fill="#97D697"/>
<path d="M432.637 17.7158C420.532 17.7158 410.411 27.6382 410.411 39.8088C410.411 42.8514 412.859 45.2992 415.901 45.2992H449.239C452.282 45.2992 454.73 42.8514 454.73 39.8088C454.73 27.6382 444.808 17.7158 432.637 17.7158ZM432.637 28.564C436.84 28.564 440.517 30.9139 442.425 34.385H422.683C424.635 30.9139 428.388 28.564 432.637 28.564Z" fill="#161613"/>
<path d="M445.121 48.8021C443.267 47.6871 440.946 47.8075 439.175 49.05C437.319 50.3528 435.06 51.12 432.637 51.1205C430.213 51.1205 427.954 50.3528 426.097 49.0496C424.327 47.807 422.005 47.6866 420.152 48.8016C416.799 50.8186 416.636 55.6091 419.829 57.8704C423.469 60.4489 427.9 61.9678 432.636 61.9682C437.372 61.9682 441.803 60.4494 445.444 57.8709C448.636 55.6095 448.473 50.819 445.121 48.8021Z" fill="#161613"/>
<path d="M443.815 39.8086C443.815 37.8402 443.309 35.9925 442.425 34.3848H422.683C421.779 35.9925 421.259 37.8402 421.259 39.8086C421.259 42.8512 418.812 45.299 415.901 45.299H449.239C446.263 45.299 443.815 42.8512 443.815 39.8086Z" fill="#1DA079"/>
<path d="M449.239 34.3848H442.425C443.309 35.9925 443.816 37.8402 443.816 39.8086C443.816 42.8512 446.263 45.299 449.239 45.299C452.282 45.299 454.73 42.8512 454.73 39.8086C454.73 36.8321 452.282 34.3848 449.239 34.3848Z" fill="#97D697"/>
<path d="M421.259 39.8086C421.259 37.8402 421.779 35.9925 422.683 34.3848H415.901C412.859 34.3848 410.411 36.8321 410.411 39.8086C410.411 42.8512 412.859 45.299 415.901 45.299C418.812 45.299 421.259 42.8512 421.259 39.8086Z" fill="#97D697"/>
<path d="M445.121 48.8021C443.267 47.6871 440.946 47.8075 439.175 49.05C437.319 50.3528 435.06 51.12 432.637 51.1205C430.213 51.1205 427.954 50.3528 426.097 49.0496C424.327 47.807 422.005 47.6866 420.152 48.8016C416.799 50.8186 416.636 55.6091 419.829 57.8704C423.469 60.4489 427.9 61.9678 432.636 61.9682C437.372 61.9682 441.803 60.4494 445.444 57.8709C448.636 55.6095 448.473 50.819 445.121 48.8021Z" fill="#1DA079"/>
<path d="M475.975 39.8419V56.2046C475.975 59.2519 473.59 61.703 470.609 61.703C467.561 61.703 465.11 59.2519 465.11 56.2046V39.8419C465.11 27.6527 475.047 17.7158 487.236 17.7158C493.265 17.7158 498.829 20.1007 502.87 24.1417C504.924 26.3278 504.924 29.6401 502.87 31.8262C500.684 33.8798 497.372 33.8798 495.186 31.8924C493.198 29.7726 490.284 28.5802 487.236 28.5802C481.076 28.5802 475.975 33.6148 475.975 39.8419Z" fill="#161613"/>
<path d="M536.633 51.2672C536.603 51.2672 536.575 51.2632 536.546 51.2632H536.633C530.44 51.2632 525.381 46.2041 525.381 39.8364V29.0205H531.137C534.176 29.0205 536.607 26.6015 536.631 23.5688C536.607 20.5366 534.176 18.1176 531.137 18.1176H525.381V11.7499C525.381 8.71181 522.961 6.28065 519.929 6.25684C516.897 6.28065 514.477 8.71182 514.477 11.7499V39.8364C514.477 52.2002 524.386 62.1289 536.567 62.1644C536.589 62.1639 536.611 62.1603 536.633 62.1594C539.615 62.0296 541.99 59.6532 542.036 56.6709C541.99 53.6889 539.615 51.3135 536.633 51.2672Z" fill="#161613"/>
<path d="M525.381 18.1172H519.929C516.918 18.1172 514.478 20.5579 514.478 23.5687C514.478 26.5795 516.918 29.0202 519.929 29.0202H525.381V18.1172Z" fill="#97D697"/>
<path d="M531.138 29.0202C534.176 29.0202 536.607 26.6011 536.631 23.5684C536.607 20.5362 534.176 18.1172 531.138 18.1172H525.381V29.0202H531.138Z" fill="#1DA079"/>
</svg>
