<svg width="750" height="500" viewBox="0 0 750 500" fill="none" xmlns="http://www.w3.org/2000/svg">
<path d="M735.11 238.322C728.103 159.313 677.593 92.112 600.943 63.181C580.79 55.575 558.98 50.48 536.647 50.417C445.374 50.158 330.154 100.249 272.771 107.175C215.387 114.101 156.505 55.371 72.3701 126.786C-11.7649 198.201 -17.7369 383.752 126.002 435.705C269.741 487.658 363.413 407.912 426.833 434.383C490.254 460.854 609.205 465.229 686.025 415.483C731.576 385.985 741.191 306.894 735.11 238.322Z" fill="#92E3A9"/>
<path opacity="0.8" d="M735.11 238.322C728.103 159.313 677.593 92.112 600.943 63.181C580.79 55.575 558.98 50.48 536.647 50.417C445.374 50.158 330.154 100.249 272.771 107.175C215.387 114.101 156.505 55.371 72.3701 126.786C-11.7649 198.201 -17.7369 383.752 126.002 435.705C269.741 487.658 363.413 407.912 426.833 434.383C490.254 460.854 609.205 465.229 686.025 415.483C731.576 385.985 741.191 306.894 735.11 238.322Z" fill="white"/>
<path d="M668.525 454.84H697.407" stroke="#263238" stroke-miterlimit="10"/>
<path d="M55.323 454.84H662.6" stroke="#263238" stroke-miterlimit="10"/>
<path d="M61.5991 405.223C63.2881 405.96 67.4181 405.867 67.4211 405.867C67.4641 405.866 66.5331 403.163 66.4551 402.999C65.5491 401.103 62.6831 397.973 60.3511 398.288C58.6711 398.515 57.7371 400.196 58.1161 401.778C58.5041 403.395 60.1611 404.595 61.5991 405.223Z" fill="#263238"/>
<path d="M63.0251 417.186C64.7771 417.441 68.4631 416.373 68.7561 416.286C69.3381 418.35 70.1031 420.42 70.9921 422.472C71.4991 423.646 72.0461 424.813 72.6101 425.975C72.2741 425.483 71.9691 425.045 71.9211 424.988C70.5461 423.398 66.9551 421.137 64.7901 422.057C63.2291 422.719 62.7721 424.587 63.5561 426.013C64.3561 427.469 66.2721 428.189 67.8251 428.415C69.4011 428.645 72.5621 427.797 73.3961 427.561C73.6171 428.005 73.8321 428.45 74.0551 428.893C75.1231 431.019 76.1971 433.135 77.1871 435.243C77.5361 435.986 77.8531 436.73 78.1731 437.474C77.8741 437.037 77.6181 436.671 77.5741 436.619C76.1991 435.03 72.6091 432.768 70.4431 433.688C68.8821 434.351 68.4251 436.219 69.2091 437.644C70.0101 439.1 71.9251 439.82 73.4781 440.046C74.9821 440.265 77.9061 439.509 78.8981 439.233C79.2021 440.004 79.5091 440.776 79.7691 441.537C79.9351 442.061 80.1311 442.553 80.2681 443.089C80.4151 443.616 80.5611 444.138 80.7051 444.655C80.9461 445.66 81.2021 446.696 81.4121 447.683C81.5641 448.368 81.6961 449.024 81.8311 449.684C81.4921 448.941 80.7971 447.499 80.7261 447.385C79.6081 445.606 76.4021 442.826 74.1211 443.407C72.4781 443.826 71.7431 445.603 72.3031 447.131C72.8731 448.691 74.6571 449.693 76.1581 450.152C77.8111 450.657 81.4691 450.196 81.9261 450.135C82.1451 451.228 82.3481 452.293 82.5231 453.302C82.6171 453.836 82.6991 454.337 82.7811 454.841H84.2361C84.1291 454.26 84.0161 453.666 83.8931 453.046C83.6751 451.935 83.4201 450.753 83.1461 449.54C83.4211 449.431 84.9811 448.8 86.3641 448.027C87.5681 449.331 90.6541 450.858 91.0541 451.052C90.6341 452.085 90.2161 453.085 89.8051 454.023C89.6821 454.307 89.5631 454.571 89.4421 454.841H90.9751C91.0131 454.749 91.0511 454.66 91.0901 454.565C91.5211 453.518 91.9611 452.391 92.4011 451.229C92.8441 451.322 96.4651 452.057 98.1531 451.676C99.6841 451.33 101.538 450.464 102.223 448.95C102.894 447.469 102.293 445.641 100.686 445.102C98.4561 444.353 95.0511 446.886 93.8031 448.577C93.7291 448.677 93.0521 449.848 92.6371 450.594C92.8141 450.118 92.9921 449.659 93.1681 449.167C93.5241 448.197 93.8511 447.218 94.2061 446.166C94.3601 445.652 94.5151 445.133 94.6721 444.609C94.8381 444.092 94.9491 443.525 95.0911 442.979C95.3951 441.705 95.6401 440.4 95.8581 439.079C96.7081 439.388 99.7441 440.445 101.317 440.334C102.883 440.224 104.846 439.649 105.753 438.257C106.641 436.894 106.324 434.997 104.817 434.219C102.725 433.141 98.9761 435.129 97.4871 436.611C97.3941 436.703 96.4451 437.887 95.9361 438.547C96.0611 437.752 96.1891 436.96 96.2901 436.151C96.5801 433.818 96.8001 431.447 97.0311 429.083C97.1011 428.359 97.1801 427.638 97.2561 426.916C97.5581 427.03 101.139 428.363 102.9 428.239C104.465 428.13 106.43 427.554 107.336 426.162C108.224 424.799 107.907 422.902 106.4 422.125C104.309 421.046 100.559 423.035 99.0701 424.517C98.9581 424.629 97.5941 426.334 97.2691 426.785C97.4371 425.195 97.6191 423.613 97.8621 422.06C98.1941 419.917 98.6391 417.833 99.2181 415.846C99.3581 415.899 103.09 417.307 104.894 417.181C106.46 417.071 108.424 416.496 109.33 415.104C110.218 413.741 109.901 411.844 108.394 411.067C106.303 409.988 102.554 411.977 101.064 413.459C100.947 413.576 99.4821 415.411 99.2391 415.763C99.2741 415.645 99.2971 415.519 99.3331 415.401C99.9791 413.287 100.87 411.321 101.795 409.521C102.33 408.474 102.9 407.503 103.476 406.571C104.144 406.905 107.214 408.395 108.85 408.461C110.418 408.524 112.434 408.168 113.487 406.884C114.519 405.627 114.413 403.706 113.001 402.768C111.04 401.466 107.096 403.031 105.452 404.341C105.363 404.412 104.535 405.237 103.94 405.846C104.206 405.429 104.473 404.994 104.736 404.6C105.72 403.118 106.713 401.821 107.602 400.679C108.112 400.034 108.587 399.461 109.037 398.929C109.863 398.915 113.193 398.814 114.649 398.13C116.069 397.463 117.694 396.219 118.038 394.593C118.374 393.001 117.395 391.346 115.709 391.165C113.369 390.913 110.589 394.119 109.734 396.039C109.661 396.205 108.803 398.932 108.846 398.932C108.846 398.932 108.886 398.932 108.896 398.931C108.453 399.434 107.984 399.978 107.484 400.583C106.569 401.707 105.545 402.986 104.525 404.453C103.501 405.916 102.431 407.535 101.456 409.341C100.477 411.15 99.5401 413.104 98.8351 415.242C98.8271 415.266 98.8221 415.292 98.8141 415.316C98.8261 414.627 98.7961 412.698 98.7771 412.551C98.5071 410.467 96.7601 406.599 94.4461 406.171C92.7791 405.863 91.3671 407.169 91.2341 408.79C91.0991 410.446 92.2991 412.103 93.4701 413.148C94.7901 414.327 98.4541 415.469 98.7461 415.559C98.0931 417.601 97.5891 419.749 97.1981 421.951C96.9731 423.21 96.7861 424.485 96.6151 425.766C96.6061 425.17 96.5941 424.636 96.5841 424.562C96.3141 422.478 94.5671 418.611 92.2531 418.183C90.5861 417.874 89.1741 419.181 89.0421 420.802C88.9061 422.458 90.1071 424.115 91.2771 425.16C92.4651 426.221 95.5691 427.257 96.3941 427.52C96.3341 428.012 96.2671 428.503 96.2091 428.995C95.9271 431.356 95.6561 433.714 95.3181 436.019C95.2001 436.831 95.0531 437.626 94.9101 438.423C94.9021 437.894 94.8901 437.448 94.8811 437.38C94.6111 435.296 92.8641 431.428 90.5511 431C88.8841 430.692 87.4721 431.998 87.3391 433.619C87.2031 435.274 88.4041 436.932 89.5751 437.977C90.7081 438.99 93.5651 439.972 94.5441 440.289C94.3721 441.1 94.2021 441.913 93.9991 442.692C93.8481 443.22 93.7401 443.739 93.5591 444.262C93.3911 444.782 93.2241 445.298 93.0601 445.809C92.7061 446.781 92.3481 447.785 91.9791 448.724C91.7281 449.379 91.4761 449.999 91.2241 450.624C91.3511 449.817 91.5671 448.232 91.5701 448.097C91.6021 446.701 91.1061 444.432 90.1201 442.837C90.1261 442.631 90.1141 442.425 90.0821 442.221C89.8241 440.615 88.3151 439.422 86.6771 439.859C84.4031 440.464 82.9611 444.456 82.8531 446.554C82.8471 446.678 82.9281 448.029 82.9931 448.88C82.8781 448.385 82.7731 447.904 82.6491 447.396C82.4101 446.39 82.1431 445.394 81.8591 444.32C81.7041 443.807 81.5471 443.288 81.3881 442.764C81.2421 442.242 81.0211 441.708 80.8391 441.174C80.3891 439.944 79.8741 438.72 79.3271 437.498C80.2081 437.287 83.3221 436.493 84.5731 435.533C85.8181 434.578 87.1391 433.014 87.1271 431.354C87.1151 429.727 85.8051 428.32 84.1201 428.503C81.7801 428.757 79.7501 432.484 79.3251 434.542C79.2991 434.67 79.1601 436.181 79.1001 437.013C78.7661 436.281 78.4361 435.549 78.0731 434.82C77.0281 432.714 75.9041 430.615 74.7921 428.516C74.4511 427.873 74.1191 427.229 73.7841 426.585C74.0981 426.513 77.8211 425.649 79.2221 424.575C80.4671 423.62 81.7881 422.057 81.7761 420.395C81.7641 418.769 80.4541 417.361 78.7691 417.544C76.4291 417.798 74.3991 421.525 73.9741 423.583C73.9421 423.738 73.7461 425.912 73.7231 426.467C72.9861 425.049 72.2651 423.629 71.6111 422.199C70.7061 420.229 69.9271 418.245 69.3141 416.268C69.4611 416.235 73.3501 415.351 74.7851 414.25C76.0301 413.295 77.3511 411.732 77.3391 410.07C77.3281 408.444 76.0171 407.036 74.3311 407.219C71.9921 407.473 69.9621 411.2 69.5371 413.258C69.5041 413.42 69.2941 415.759 69.2861 416.185C69.2501 416.068 69.1991 415.95 69.1641 415.832C68.5371 413.712 68.1951 411.58 67.9741 409.569C67.8431 408.401 67.7831 407.276 67.7491 406.181C68.4901 406.09 71.8731 405.64 73.2741 404.792C74.6171 403.979 76.1011 402.57 76.2721 400.918C76.4391 399.3 75.2911 397.757 73.5961 397.754C71.2431 397.749 68.8161 401.231 68.1681 403.23C68.1331 403.339 67.8971 404.483 67.7371 405.32C67.7301 404.825 67.7121 404.315 67.7141 403.841C67.7171 402.062 67.8301 400.432 67.9411 398.99C68.0111 398.17 68.0901 397.431 68.1721 396.74C68.8531 396.272 71.5741 394.351 72.4111 392.977C73.2281 391.637 73.8961 389.703 73.2861 388.158C72.6891 386.645 70.9591 385.804 69.4531 386.583C67.3621 387.664 66.8131 391.872 67.1581 393.945C67.1881 394.124 67.9781 396.871 68.0141 396.848C68.0141 396.848 68.0471 396.825 68.0551 396.82C67.9631 397.483 67.8721 398.196 67.7891 398.977C67.6451 400.42 67.4971 402.051 67.4561 403.837C67.4091 405.622 67.4091 407.563 67.5931 409.607C67.7751 411.656 68.0711 413.802 68.6621 415.974C68.6691 415.999 68.6791 416.023 68.6861 416.048C68.3161 415.466 67.2261 413.875 67.1291 413.762C65.7541 412.173 62.1641 409.911 59.9981 410.83C58.4381 411.493 57.9801 413.361 58.7641 414.787C59.5571 416.24 61.4721 416.96 63.0251 417.186Z" fill="#263238"/>
<path d="M103.377 406.13C103.413 406.153 104.128 403.385 104.153 403.205C104.443 401.124 103.779 396.932 101.66 395.908C100.134 395.171 98.427 396.058 97.871 397.586C97.303 399.147 98.023 401.062 98.876 402.38C99.878 403.928 103.375 406.129 103.377 406.13Z" fill="#263238"/>
<path d="M610.693 412.725C612.126 413.351 615.632 413.272 615.635 413.272C615.671 413.271 614.881 410.977 614.815 410.838C614.046 409.229 611.613 406.572 609.634 406.839C608.208 407.032 607.415 408.459 607.737 409.801C608.066 411.173 609.472 412.192 610.693 412.725Z" fill="#263238"/>
<path d="M611.903 422.881C613.39 423.098 616.518 422.191 616.767 422.117C617.261 423.868 617.91 425.626 618.665 427.367C619.095 428.364 619.56 429.354 620.038 430.341C619.753 429.923 619.494 429.551 619.453 429.503C618.286 428.154 615.238 426.234 613.4 427.015C612.075 427.577 611.688 429.163 612.353 430.373C613.032 431.608 614.658 432.22 615.976 432.412C617.314 432.607 619.996 431.887 620.704 431.687C620.891 432.064 621.074 432.442 621.263 432.818C622.169 434.622 623.081 436.418 623.921 438.207C624.218 438.837 624.486 439.469 624.758 440.1C624.504 439.729 624.287 439.418 624.249 439.374C623.082 438.025 620.035 436.105 618.196 436.886C616.872 437.448 616.484 439.034 617.149 440.244C617.829 441.48 619.454 442.091 620.772 442.283C622.048 442.469 624.531 441.827 625.372 441.593C625.63 442.248 625.89 442.903 626.111 443.549C626.252 443.994 626.419 444.412 626.535 444.866C626.66 445.313 626.783 445.756 626.906 446.195C627.111 447.048 627.327 447.927 627.506 448.765C627.635 449.347 627.747 449.903 627.862 450.464C627.574 449.833 626.985 448.61 626.924 448.513C625.975 447.003 623.254 444.644 621.318 445.137C619.924 445.492 619.3 447.001 619.774 448.297C620.258 449.621 621.772 450.472 623.046 450.861C624.449 451.29 627.554 450.898 627.941 450.846C628.127 451.774 628.299 452.678 628.448 453.534C628.528 453.987 628.597 454.412 628.667 454.84H629.902C629.811 454.347 629.715 453.843 629.611 453.316C629.426 452.373 629.209 451.369 628.977 450.34C629.211 450.247 630.535 449.712 631.708 449.056C632.73 450.163 635.349 451.459 635.689 451.623C635.333 452.5 634.977 453.349 634.629 454.145C634.524 454.386 634.423 454.61 634.321 454.84H635.622C635.655 454.762 635.687 454.686 635.719 454.606C636.085 453.717 636.458 452.76 636.832 451.774C637.208 451.853 640.281 452.477 641.714 452.154C643.013 451.86 644.587 451.125 645.169 449.84C645.739 448.583 645.229 447.032 643.864 446.574C641.971 445.938 639.081 448.088 638.022 449.523C637.959 449.608 637.384 450.602 637.032 451.235C637.182 450.831 637.333 450.441 637.483 450.023C637.786 449.2 638.063 448.369 638.364 447.476C638.494 447.04 638.626 446.599 638.76 446.154C638.901 445.716 638.995 445.234 639.116 444.771C639.374 443.69 639.582 442.582 639.767 441.461C640.489 441.723 643.065 442.62 644.4 442.526C645.729 442.433 647.395 441.945 648.165 440.763C648.919 439.606 648.65 437.996 647.371 437.336C645.596 436.421 642.414 438.109 641.149 439.367C641.07 439.445 640.265 440.45 639.833 441.01C639.939 440.335 640.048 439.663 640.133 438.977C640.379 436.997 640.566 434.985 640.762 432.978C640.822 432.363 640.888 431.751 640.953 431.139C641.209 431.235 644.248 432.367 645.744 432.262C647.073 432.169 648.74 431.681 649.509 430.499C650.262 429.343 649.994 427.732 648.715 427.073C646.94 426.157 643.758 427.845 642.494 429.103C642.399 429.198 641.242 430.645 640.965 431.028C641.107 429.679 641.262 428.336 641.468 427.018C641.75 425.199 642.127 423.43 642.619 421.744C642.738 421.789 645.905 422.984 647.437 422.877C648.766 422.783 650.433 422.295 651.202 421.114C651.955 419.958 651.687 418.347 650.408 417.688C648.633 416.773 645.451 418.46 644.187 419.718C644.088 419.817 642.844 421.374 642.638 421.673C642.668 421.573 642.687 421.466 642.718 421.366C643.266 419.572 644.023 417.903 644.808 416.375C645.262 415.486 645.746 414.662 646.235 413.871C646.802 414.154 649.408 415.419 650.797 415.475C652.128 415.528 653.839 415.226 654.733 414.136C655.609 413.069 655.519 411.439 654.32 410.643C652.656 409.538 649.308 410.866 647.913 411.978C647.837 412.038 647.134 412.738 646.63 413.255C646.856 412.901 647.083 412.532 647.306 412.198C648.142 410.94 648.984 409.839 649.738 408.87C650.171 408.323 650.574 407.836 650.956 407.385C651.657 407.373 654.483 407.287 655.719 406.707C656.924 406.141 658.304 405.085 658.595 403.705C658.88 402.354 658.049 400.949 656.619 400.795C654.633 400.581 652.273 403.302 651.548 404.932C651.485 405.073 650.758 407.388 650.795 407.387C650.795 407.387 650.829 407.387 650.837 407.387C650.461 407.814 650.063 408.275 649.638 408.789C648.861 409.743 647.992 410.829 647.126 412.073C646.257 413.315 645.348 414.689 644.521 416.222C643.69 417.758 642.895 419.416 642.296 421.23C642.289 421.251 642.285 421.273 642.278 421.293C642.289 420.708 642.263 419.071 642.246 418.946C642.017 417.177 640.535 413.894 638.57 413.531C637.155 413.27 635.957 414.378 635.844 415.754C635.729 417.159 636.748 418.565 637.741 419.453C638.861 420.454 641.971 421.423 642.219 421.499C641.664 423.232 641.237 425.056 640.905 426.925C640.714 427.994 640.556 429.076 640.41 430.163C640.402 429.657 640.392 429.204 640.384 429.141C640.155 427.372 638.672 424.09 636.708 423.727C635.293 423.465 634.095 424.574 633.982 425.95C633.867 427.355 634.886 428.762 635.879 429.649C636.887 430.549 639.522 431.429 640.222 431.653C640.171 432.07 640.115 432.487 640.065 432.905C639.825 434.909 639.595 436.91 639.309 438.866C639.209 439.555 639.084 440.23 638.962 440.906C638.955 440.457 638.945 440.078 638.938 440.021C638.709 438.252 637.226 434.969 635.263 434.606C633.847 434.345 632.649 435.453 632.536 436.829C632.421 438.234 633.44 439.641 634.434 440.528C635.396 441.387 637.821 442.221 638.652 442.491C638.506 443.18 638.362 443.869 638.189 444.53C638.061 444.978 637.969 445.419 637.816 445.862C637.673 446.304 637.532 446.742 637.392 447.175C637.092 448 636.787 448.852 636.474 449.649C636.261 450.205 636.047 450.731 635.833 451.261C635.941 450.576 636.124 449.23 636.127 449.116C636.154 447.931 635.734 446.005 634.896 444.651C634.901 444.476 634.891 444.302 634.863 444.128C634.644 442.765 633.363 441.752 631.973 442.123C630.043 442.637 628.819 446.025 628.728 447.805C628.723 447.91 628.791 449.057 628.847 449.779C628.749 449.359 628.661 448.951 628.555 448.52C628.352 447.666 628.125 446.821 627.884 445.909C627.752 445.473 627.619 445.033 627.484 444.588C627.36 444.145 627.173 443.692 627.018 443.238C626.636 442.195 626.199 441.155 625.735 440.118C626.482 439.939 629.126 439.265 630.187 438.45C631.244 437.639 632.365 436.312 632.355 434.903C632.345 433.522 631.233 432.327 629.803 432.483C627.817 432.699 626.094 435.862 625.734 437.608C625.712 437.717 625.594 438.999 625.543 439.705C625.259 439.084 624.979 438.462 624.671 437.843C623.784 436.055 622.83 434.274 621.886 432.493C621.597 431.947 621.315 431.401 621.031 430.854C621.298 430.793 624.457 430.06 625.646 429.148C626.703 428.337 627.824 427.01 627.814 425.6C627.804 424.22 626.692 423.025 625.261 423.18C623.275 423.395 621.552 426.559 621.192 428.305C621.165 428.437 620.999 430.282 620.979 430.753C620.354 429.549 619.742 428.344 619.186 427.131C618.418 425.458 617.757 423.775 617.237 422.097C617.361 422.069 620.662 421.318 621.88 420.384C622.937 419.573 624.058 418.246 624.048 416.836C624.038 415.455 622.926 414.261 621.495 414.416C619.51 414.632 617.786 417.795 617.426 419.541C617.398 419.678 617.22 421.664 617.213 422.026C617.182 421.926 617.139 421.826 617.11 421.727C616.578 419.928 616.288 418.118 616.1 416.411C615.988 415.419 615.938 414.465 615.909 413.536C616.538 413.459 619.41 413.077 620.598 412.357C621.738 411.667 622.998 410.472 623.142 409.069C623.284 407.696 622.309 406.386 620.871 406.383C618.874 406.379 616.814 409.334 616.264 411.03C616.234 411.122 616.034 412.094 615.898 412.803C615.892 412.383 615.877 411.95 615.879 411.548C615.882 410.038 615.977 408.654 616.072 407.431C616.131 406.735 616.199 406.107 616.268 405.521C616.846 405.124 619.156 403.493 619.866 402.328C620.559 401.191 621.126 399.549 620.609 398.238C620.102 396.954 618.634 396.241 617.356 396.901C615.581 397.818 615.115 401.39 615.408 403.149C615.434 403.301 616.104 405.633 616.134 405.613C616.134 405.613 616.162 405.594 616.169 405.589C616.091 406.152 616.014 406.757 615.943 407.42C615.821 408.644 615.695 410.029 615.66 411.545C615.621 413.06 615.62 414.707 615.777 416.442C615.931 418.181 616.182 420.003 616.684 421.846C616.69 421.867 616.698 421.888 616.704 421.909C616.39 421.415 615.465 420.064 615.382 419.969C614.215 418.62 611.168 416.7 609.329 417.481C608.005 418.044 607.616 419.629 608.282 420.839C608.96 422.078 610.585 422.689 611.903 422.881Z" fill="#263238"/>
<path d="M646.152 413.498C646.183 413.517 646.79 411.168 646.811 411.015C647.057 409.249 646.495 405.691 644.696 404.822C643.4 404.196 641.952 404.949 641.48 406.247C640.998 407.572 641.608 409.197 642.332 410.315C643.182 411.629 646.15 413.497 646.152 413.498Z" fill="#263238"/>
<path d="M690.845 430.415C690.014 430.778 687.979 430.732 687.979 430.732C687.958 430.731 688.416 429.401 688.455 429.32C688.901 428.387 690.312 426.846 691.46 427.001C692.287 427.113 692.747 427.94 692.56 428.719C692.369 429.515 691.553 430.105 690.845 430.415Z" fill="#263238"/>
<path d="M690.143 436.304C689.281 436.43 687.466 435.904 687.322 435.861C687.035 436.877 686.659 437.896 686.221 438.906C685.971 439.484 685.702 440.058 685.425 440.631C685.591 440.389 685.74 440.173 685.764 440.145C686.441 439.363 688.209 438.249 689.274 438.702C690.042 439.028 690.267 439.948 689.882 440.65C689.488 441.366 688.545 441.721 687.781 441.832C687.005 441.945 685.449 441.527 685.039 441.411C684.93 441.63 684.824 441.849 684.715 442.067C684.19 443.113 683.661 444.155 683.173 445.193C683.001 445.559 682.845 445.925 682.688 446.291C682.835 446.076 682.961 445.896 682.983 445.87C683.66 445.088 685.427 443.974 686.493 444.427C687.261 444.753 687.486 445.673 687.1 446.374C686.706 447.091 685.763 447.445 684.999 447.556C684.259 447.664 682.819 447.292 682.331 447.156C682.181 447.536 682.03 447.916 681.902 448.29C681.82 448.548 681.724 448.79 681.656 449.054C681.583 449.313 681.512 449.57 681.441 449.825C681.322 450.32 681.197 450.83 681.093 451.315C681.018 451.652 680.953 451.975 680.887 452.3C681.054 451.934 681.396 451.224 681.431 451.168C681.981 450.292 683.56 448.924 684.682 449.21C685.491 449.416 685.852 450.291 685.577 451.043C685.296 451.811 684.418 452.304 683.679 452.53C682.865 452.778 681.065 452.551 680.84 452.521C680.732 453.059 680.632 453.584 680.546 454.08C680.5 454.343 680.46 454.59 680.419 454.838H679.703C679.756 454.552 679.811 454.26 679.872 453.954C679.979 453.407 680.105 452.825 680.24 452.228C680.105 452.174 679.336 451.863 678.656 451.483C678.063 452.125 676.544 452.876 676.347 452.972C676.554 453.481 676.76 453.973 676.962 454.435C677.023 454.575 677.081 454.705 677.141 454.838H676.386C676.367 454.793 676.349 454.749 676.329 454.702C676.117 454.187 675.9 453.632 675.684 453.06C675.466 453.106 673.683 453.468 672.852 453.28C672.099 453.11 671.186 452.683 670.848 451.938C670.518 451.209 670.813 450.309 671.605 450.043C672.703 449.674 674.379 450.921 674.993 451.754C675.029 451.803 675.363 452.38 675.567 452.747C675.48 452.513 675.392 452.286 675.305 452.044C675.13 451.566 674.969 451.084 674.794 450.567C674.718 450.314 674.642 450.058 674.565 449.8C674.483 449.546 674.429 449.266 674.359 448.998C674.21 448.371 674.089 447.728 673.982 447.078C673.563 447.23 672.069 447.75 671.295 447.696C670.524 447.642 669.558 447.359 669.112 446.673C668.675 446.002 668.831 445.068 669.573 444.686C670.603 444.155 672.448 445.134 673.181 445.864C673.227 445.909 673.694 446.492 673.944 446.817C673.882 446.426 673.819 446.036 673.77 445.638C673.627 444.49 673.519 443.322 673.405 442.159C673.37 441.802 673.332 441.448 673.294 441.092C673.146 441.148 671.383 441.804 670.515 441.743C669.744 441.689 668.778 441.406 668.331 440.72C667.894 440.049 668.05 439.115 668.792 438.733C669.821 438.202 671.667 439.181 672.4 439.91C672.455 439.965 673.126 440.804 673.286 441.026C673.203 440.243 673.114 439.464 672.994 438.7C672.831 437.645 672.612 436.619 672.326 435.641C672.257 435.667 670.42 436.36 669.532 436.298C668.761 436.244 667.795 435.961 667.348 435.275C666.911 434.604 667.067 433.67 667.809 433.288C668.839 432.757 670.684 433.736 671.417 434.465C671.474 434.522 672.196 435.426 672.315 435.599C672.298 435.541 672.286 435.479 672.269 435.421C671.951 434.381 671.512 433.413 671.057 432.526C670.794 432.01 670.513 431.532 670.229 431.074C669.9 431.238 668.389 431.972 667.583 432.004C666.811 432.035 665.819 431.86 665.3 431.228C664.792 430.609 664.844 429.664 665.539 429.202C666.504 428.561 668.446 429.331 669.255 429.976C669.299 430.011 669.706 430.417 669.999 430.717C669.868 430.512 669.737 430.298 669.607 430.104C669.122 429.374 668.634 428.736 668.196 428.174C667.945 427.857 667.711 427.574 667.49 427.313C667.083 427.306 665.444 427.256 664.728 426.92C664.029 426.591 663.229 425.979 663.06 425.179C662.894 424.395 663.376 423.581 664.206 423.491C665.358 423.367 666.726 424.945 667.147 425.89C667.183 425.972 667.605 427.314 667.584 427.314C667.584 427.314 667.564 427.314 667.56 427.314C667.778 427.561 668.009 427.829 668.255 428.127C668.706 428.68 669.209 429.31 669.712 430.032C670.216 430.752 670.743 431.549 671.223 432.438C671.705 433.329 672.166 434.29 672.513 435.343C672.517 435.355 672.52 435.368 672.524 435.38C672.518 435.041 672.533 434.091 672.542 434.019C672.675 432.993 673.535 431.089 674.674 430.878C675.494 430.726 676.19 431.369 676.255 432.167C676.322 432.982 675.731 433.798 675.155 434.312C674.505 434.893 672.701 435.455 672.558 435.499C672.88 436.504 673.128 437.562 673.32 438.646C673.431 439.266 673.523 439.893 673.607 440.524C673.611 440.23 673.617 439.968 673.622 439.931C673.755 438.905 674.615 437.001 675.754 436.791C676.575 436.639 677.27 437.282 677.335 438.08C677.402 438.895 676.811 439.711 676.235 440.225C675.65 440.747 674.122 441.258 673.716 441.387C673.746 441.629 673.778 441.871 673.807 442.113C673.946 443.275 674.08 444.436 674.245 445.571C674.303 445.971 674.375 446.362 674.446 446.754C674.45 446.494 674.456 446.274 674.46 446.241C674.593 445.215 675.453 443.311 676.592 443.1C677.413 442.949 678.108 443.591 678.173 444.389C678.24 445.204 677.649 446.02 677.072 446.534C676.514 447.032 675.108 447.516 674.626 447.672C674.711 448.071 674.795 448.471 674.894 448.855C674.968 449.115 675.022 449.371 675.11 449.628C675.193 449.884 675.275 450.138 675.356 450.389C675.53 450.867 675.707 451.362 675.888 451.824C676.012 452.147 676.136 452.452 676.26 452.759C676.197 452.362 676.091 451.581 676.09 451.515C676.074 450.828 676.318 449.711 676.804 448.926C676.801 448.824 676.807 448.723 676.823 448.623C676.95 447.832 677.693 447.245 678.499 447.46C679.618 447.758 680.328 449.723 680.381 450.756C680.384 450.817 680.344 451.482 680.312 451.901C680.369 451.657 680.42 451.421 680.481 451.171C680.598 450.676 680.73 450.185 680.87 449.657C680.946 449.404 681.024 449.149 681.102 448.891C681.174 448.634 681.283 448.371 681.373 448.108C681.594 447.503 681.848 446.9 682.117 446.299C681.684 446.195 680.15 445.804 679.535 445.332C678.922 444.862 678.272 444.092 678.278 443.275C678.284 442.474 678.929 441.781 679.758 441.871C680.91 441.996 681.909 443.831 682.118 444.844C682.131 444.907 682.199 445.651 682.229 446.06C682.394 445.7 682.556 445.339 682.734 444.98C683.249 443.943 683.802 442.91 684.349 441.877C684.517 441.561 684.68 441.244 684.845 440.926C684.69 440.891 682.858 440.465 682.168 439.936C681.555 439.466 680.905 438.696 680.911 437.878C680.917 437.077 681.562 436.384 682.391 436.475C683.543 436.6 684.542 438.435 684.751 439.448C684.767 439.524 684.863 440.595 684.874 440.868C685.237 440.17 685.592 439.471 685.914 438.767C686.359 437.797 686.743 436.821 687.045 435.847C686.973 435.831 685.058 435.395 684.352 434.853C683.739 434.383 683.089 433.613 683.095 432.796C683.101 431.995 683.746 431.302 684.576 431.392C685.728 431.517 686.727 433.352 686.936 434.365C686.952 434.445 687.056 435.596 687.059 435.806C687.077 435.748 687.102 435.69 687.119 435.632C687.428 434.588 687.596 433.539 687.705 432.549C687.77 431.974 687.799 431.42 687.816 430.881C687.451 430.836 685.786 430.615 685.096 430.197C684.435 429.797 683.704 429.103 683.62 428.29C683.538 427.493 684.103 426.734 684.937 426.732C686.095 426.73 687.29 428.444 687.609 429.427C687.626 429.481 687.743 430.044 687.821 430.456C687.825 430.213 687.833 429.961 687.832 429.728C687.83 428.852 687.775 428.05 687.72 427.34C687.686 426.936 687.646 426.572 687.606 426.232C687.271 426.002 685.931 425.056 685.519 424.38C685.117 423.72 684.788 422.768 685.088 422.008C685.382 421.263 686.234 420.85 686.975 421.233C688.004 421.765 688.275 423.837 688.105 424.857C688.09 424.945 687.701 426.298 687.684 426.286C687.684 426.286 687.668 426.275 687.664 426.272C687.709 426.599 687.754 426.949 687.795 427.334C687.866 428.044 687.939 428.847 687.959 429.726C687.982 430.605 687.982 431.56 687.891 432.566C687.801 433.575 687.656 434.631 687.365 435.7C687.362 435.712 687.357 435.724 687.353 435.736C687.535 435.45 688.072 434.666 688.12 434.611C688.797 433.829 690.564 432.715 691.631 433.168C692.399 433.494 692.624 434.414 692.238 435.116C691.85 435.839 690.908 436.193 690.143 436.304Z" fill="#263238"/>
<path d="M670.279 430.863C670.261 430.874 669.909 429.512 669.897 429.423C669.754 428.399 670.081 426.335 671.124 425.831C671.875 425.468 672.715 425.905 672.989 426.657C673.269 427.425 672.914 428.368 672.494 429.017C672.002 429.779 670.281 430.862 670.279 430.863Z" fill="#263238"/>
<path d="M93.72 127.754C90.411 129.688 89.163 133.434 88.564 135.23C87.736 137.713 84.839 133.575 79.046 135.644C73.252 137.713 72.425 142.266 71.183 143.507C69.941 144.748 61.665 148.059 61.665 148.059H144.717" stroke="#263238" stroke-miterlimit="10" stroke-linecap="round" stroke-linejoin="round"/>
<path d="M148.855 148.059H158.917C158.917 148.059 160.572 138.954 156.848 134.402C153.123 129.85 144.847 136.471 142.364 129.85C142.364 129.85 134.915 119.09 125.81 118.262C116.706 117.434 112.981 124.47 110.084 128.194C107.187 131.919 105.532 126.539 98.4961 126.539" stroke="#263238" stroke-miterlimit="10" stroke-linecap="round" stroke-linejoin="round"/>
<path d="M109.107 140.668C107.419 142.239 107.186 144.334 107.186 144.334" stroke="#263238" stroke-miterlimit="10" stroke-linecap="round" stroke-linejoin="round"/>
<path d="M140.708 133.575C140.708 133.575 134.914 127.781 128.293 128.195C121.671 128.609 124.155 136.472 121.258 138.955C118.361 141.438 115.05 138.127 111.326 139.369" stroke="#263238" stroke-miterlimit="10" stroke-linecap="round" stroke-linejoin="round"/>
<path d="M318.613 35.9922C315.884 37.5872 314.854 40.6772 314.36 42.1582C313.677 44.2062 311.288 40.7932 306.51 42.4992C301.732 44.2062 301.049 47.9602 300.025 48.9842C299.001 50.0082 292.175 52.7392 292.175 52.7392H360.673" stroke="#263238" stroke-miterlimit="10" stroke-linecap="round" stroke-linejoin="round"/>
<path d="M364.086 52.7388H372.385C372.385 52.7388 373.75 45.2298 370.678 41.4748C367.606 37.7198 360.78 43.1818 358.732 37.7198C358.732 37.7198 352.588 28.8458 345.079 28.1628C337.57 27.4798 334.498 33.2828 332.109 36.3548C329.72 39.4268 328.355 34.9898 322.552 34.9898" stroke="#263238" stroke-miterlimit="10" stroke-linecap="round" stroke-linejoin="round"/>
<path d="M331.304 46.6445C329.912 47.9405 329.72 49.6685 329.72 49.6685" stroke="#263238" stroke-miterlimit="10" stroke-linecap="round" stroke-linejoin="round"/>
<path d="M357.367 40.7923C357.367 40.7923 352.588 36.0143 347.127 36.3553C341.666 36.6963 343.714 43.1813 341.325 45.2293C338.936 47.2773 336.205 44.5463 333.133 45.5703" stroke="#263238" stroke-miterlimit="10" stroke-linecap="round" stroke-linejoin="round"/>
<path d="M623.692 129.035C620.963 130.631 619.933 133.72 619.439 135.201C618.756 137.249 616.367 133.836 611.589 135.542C606.81 137.249 606.128 141.003 605.104 142.027C604.08 143.051 597.254 145.782 597.254 145.782H665.752" stroke="#263238" stroke-miterlimit="10" stroke-linecap="round" stroke-linejoin="round"/>
<path d="M669.165 145.784H677.464C677.464 145.784 678.829 138.275 675.757 134.52C672.685 130.765 665.859 136.227 663.811 130.765C663.811 130.765 657.667 121.891 650.158 121.208C642.649 120.525 639.577 126.328 637.188 129.4C634.799 132.472 633.433 128.035 627.631 128.035" stroke="#263238" stroke-miterlimit="10" stroke-linecap="round" stroke-linejoin="round"/>
<path d="M636.383 139.688C634.991 140.984 634.799 142.712 634.799 142.712" stroke="#263238" stroke-miterlimit="10" stroke-linecap="round" stroke-linejoin="round"/>
<path d="M662.445 133.837C662.445 133.837 657.666 129.058 652.205 129.4C646.744 129.741 648.792 136.226 646.403 138.274C644.014 140.322 641.283 137.591 638.211 138.615" stroke="#263238" stroke-miterlimit="10" stroke-linecap="round" stroke-linejoin="round"/>
<path d="M598.847 271.146L576.515 220.454L516.123 247.059L501.826 214.606L494.547 57.6809L538.738 38.2129L598.171 173.122L617.32 164.686L631.263 196.335L612.114 204.771L634.446 255.463L598.847 271.146ZM532.132 202.216L562.574 188.805L521.927 96.5409L532.132 202.216Z" fill="#263238" stroke="#263238" stroke-miterlimit="10"/>
<path d="M593.998 273.349L571.666 222.657L511.274 249.262L496.977 216.809L489.698 59.884L533.889 40.416L593.323 175.325L612.472 166.889L626.415 198.538L607.266 206.974L629.598 257.665L593.998 273.349ZM527.282 204.419L557.723 191.008L517.077 98.744L527.282 204.419Z" fill="#92E3A9" stroke="#263238" stroke-miterlimit="10"/>
<path d="M409.172 315.297C396.331 317.662 385.16 316.74 375.656 312.53C366.152 308.32 358.36 301.561 352.28 292.249C346.2 282.939 341.94 271.654 339.497 258.395L320.224 153.766C317.711 140.125 317.528 127.791 319.682 116.763C321.833 105.741 326.6 96.5648 333.981 89.2448C341.362 81.9248 351.648 77.0498 364.84 74.6198C377.854 72.2228 389.07 73.1368 398.488 77.3618C407.902 81.5878 415.58 88.4708 421.521 98.0028C427.459 107.54 431.687 119.129 434.199 132.77L453.472 237.399C455.914 250.658 455.954 262.72 453.59 273.586C451.227 284.452 446.355 293.545 438.974 300.865C431.594 308.187 421.658 312.997 409.172 315.297ZM401.951 276.098C406.7 275.223 409.829 272.961 411.338 269.303C412.847 265.649 413.536 261.499 413.409 256.852C413.279 252.21 412.863 247.966 412.155 244.119L393.201 141.22C392.423 136.995 391.299 132.63 389.835 128.131C388.367 123.633 386.272 119.898 383.542 116.923C380.812 113.952 376.982 112.916 372.06 113.822C367.134 114.729 363.882 117.07 362.304 120.835C360.722 124.604 360.051 128.849 360.286 133.574C360.518 138.3 361.027 142.778 361.805 147.003L380.759 249.902C381.467 253.748 382.588 257.863 384.123 262.246C385.656 266.634 387.869 270.25 390.759 273.094C393.645 275.942 397.376 276.941 401.951 276.098Z" fill="#263238" stroke="#263238" stroke-miterlimit="10"/>
<path d="M403.441 316.619C390.6 318.984 379.429 318.062 369.925 313.852C360.421 309.643 352.629 302.883 346.549 293.571C340.469 284.261 336.209 272.976 333.767 259.717L314.493 155.089C311.98 141.448 311.797 129.114 313.951 118.086C316.102 107.064 320.869 97.8881 328.25 90.5681C335.631 83.2481 345.917 78.3741 359.109 75.9441C372.123 73.5471 383.339 74.4611 392.757 78.6861C402.171 82.9121 409.849 89.7951 415.79 99.3271C421.728 108.864 425.956 120.453 428.468 134.094L447.74 238.723C450.182 251.982 450.222 264.044 447.858 274.909C445.495 285.775 440.623 294.868 433.242 302.188C425.863 309.508 415.928 314.319 403.441 316.619ZM396.22 277.419C400.969 276.544 404.098 274.282 405.607 270.624C407.116 266.97 407.805 262.82 407.678 258.173C407.548 253.531 407.132 249.287 406.424 245.44L387.47 142.54C386.692 138.315 385.568 133.95 384.104 129.451C382.636 124.953 380.541 121.218 377.811 118.243C375.081 115.272 371.251 114.236 366.329 115.142C361.403 116.049 358.151 118.39 356.573 122.155C354.991 125.925 354.32 130.169 354.555 134.894C354.787 139.62 355.296 144.098 356.074 148.323L375.028 251.222C375.736 255.068 376.857 259.183 378.392 263.566C379.925 267.954 382.138 271.57 385.028 274.414C387.914 277.263 391.645 278.262 396.22 277.419Z" fill="#92E3A9" stroke="#263238" stroke-miterlimit="10"/>
<path d="M179.666 289.602L192.39 235.69L128.16 220.53L136.306 186.016L225.06 56.3965L272.057 67.4885L238.193 210.966L258.558 215.773L250.614 249.432L230.249 244.625L217.525 298.536L179.666 289.602ZM167.959 194.389L200.335 202.031L223.495 103.907L167.959 194.389Z" fill="#263238" stroke="#263238" stroke-miterlimit="10"/>
<path d="M174.492 288.459L187.216 234.548L122.986 219.388L131.132 184.874L219.886 55.2539L266.883 66.3469L233.019 209.825L253.384 214.632L245.44 248.291L225.074 243.484L212.349 297.395L174.492 288.459ZM162.785 193.247L195.161 200.889L218.321 102.765L162.785 193.247Z" fill="#92E3A9" stroke="#263238" stroke-miterlimit="10"/>
<path d="M534.59 299.005C534.59 299.005 531.033 322.795 532.367 330.799C533.701 338.803 551.488 374.377 551.488 374.377V379.268L537.925 385.938L541.927 395.054L547.485 393.72L542.149 419.066L553.711 421.512L568.608 389.051C568.608 389.051 594.399 381.047 594.844 379.046C595.289 377.045 590.62 346.14 590.62 346.14C590.62 346.14 584.839 318.125 581.059 308.787C577.279 299.449 572.61 291 572.61 291L534.59 299.005Z" fill="#263238" stroke="#263238" stroke-miterlimit="10"/>
<path d="M547.93 333.021L556.823 335.689L570.608 371.263L553.711 379.046" stroke="white" stroke-miterlimit="10"/>
<path d="M566.162 390.162L550.82 393.275" stroke="white" stroke-miterlimit="10"/>
<path d="M521.829 240.584L509.409 250.274L506.464 244.267L498.178 248.924C498.178 248.924 497.869 275.174 500.092 276.23C502.315 277.285 529.563 261.284 529.563 261.284C529.563 261.284 531.383 290.172 530.928 294.494C530.473 298.816 533.43 300.863 535.477 300.636C537.524 300.408 576.193 295.404 577.103 294.267C578.013 293.13 578.923 290.173 578.468 288.353C578.013 286.533 569.597 254.916 569.597 254.916C569.597 254.916 592.571 258.555 593.481 256.508C594.391 254.461 601.215 234.899 601.215 234.899L589.614 232.169L585.292 238.765C585.292 238.765 560.498 228.529 552.537 228.529C544.576 228.529 524.331 238.764 521.829 240.584Z" fill="white" stroke="#263238" stroke-miterlimit="10"/>
<path d="M585.292 238.764L591.149 241.137" stroke="#263238" stroke-miterlimit="10"/>
<path d="M555.43 252.961L569.596 254.914L554.086 257.239" stroke="#263238" stroke-miterlimit="10"/>
<path d="M502.237 258.428L500.355 260.569" stroke="#263238" stroke-miterlimit="10"/>
<path d="M509.409 250.273L504.144 256.259" stroke="#263238" stroke-miterlimit="10"/>
<path d="M563.425 266.414C558.484 273.408 548.298 287.181 541.741 291.582" stroke="#263238" stroke-miterlimit="10"/>
<path d="M566.307 262.25C566.307 262.25 565.788 263.025 564.884 264.329" stroke="#263238" stroke-miterlimit="10"/>
<path d="M541.852 288.252C540.374 289.787 538.93 291.155 537.708 292.071" stroke="#263238" stroke-miterlimit="10"/>
<path d="M551.03 277.527C551.03 277.527 547.193 282.476 543.195 286.823" stroke="#263238" stroke-miterlimit="10"/>
<path d="M498.178 248.924L497.076 224.029C497.076 224.029 492.612 215.485 492.513 214.81C492.415 214.135 494.192 205.83 494.67 204.381C495.148 202.932 497.662 204.404 498.956 206.974C500.25 209.544 499.617 213.084 499.617 213.084C499.617 213.084 502.557 217.482 503.078 219.475C503.599 221.468 502.642 224.366 502.642 224.366L506.464 244.267L498.178 248.924Z" fill="white" stroke="#263238" stroke-miterlimit="10"/>
<path d="M496.789 204.234C496.789 204.234 495.337 204.553 495.641 205.9C495.945 207.247 497.368 212.605 497.163 214.133" stroke="#263238" stroke-miterlimit="10"/>
<path d="M589.613 231.098C589.613 231.098 606.876 201.761 608.465 200.914C610.054 200.067 622.127 200.384 622.127 200.384C622.127 200.384 626.787 193.924 627.422 194.665C628.057 195.406 628.057 195.406 628.057 195.406C628.057 195.406 629.752 194.453 630.281 194.982C630.81 195.511 630.81 195.511 630.81 195.511C630.81 195.511 631.975 194.558 632.61 194.876C633.245 195.194 633.245 196.147 633.245 196.147C633.245 196.147 634.516 195.406 634.198 196.782C633.88 198.158 629.962 204.937 628.373 205.89C626.784 206.843 610.58 206.843 610.58 206.843L601.79 232.896L589.613 231.098Z" fill="white" stroke="#263238" stroke-miterlimit="10"/>
<path d="M628.059 195.406C628.059 195.406 624.035 202.926 623.187 203.667" stroke="#263238" stroke-miterlimit="10"/>
<path d="M630.811 195.512L625.834 204.62" stroke="#263238" stroke-miterlimit="10"/>
<path d="M633.247 196.148L628.482 204.197" stroke="#263238" stroke-miterlimit="10"/>
<path d="M495.248 247.742L497.681 254.973L510.202 246.25L507.191 239.793L495.248 247.742Z" fill="white" stroke="#263238" stroke-miterlimit="10"/>
<path d="M570.279 202.143C570.279 202.143 570.279 206.692 569.142 210.332C568.005 213.972 571.189 217.156 570.279 218.293C569.369 219.43 566.412 221.023 566.412 221.023C566.412 221.023 565.047 227.165 562.773 228.074C560.498 228.984 554.129 226.254 554.129 226.254C554.129 226.254 548.442 218.975 552.309 212.606C556.176 206.238 570.279 202.143 570.279 202.143Z" fill="white" stroke="#263238" stroke-miterlimit="10"/>
<path d="M566.181 213.421C565.911 214.266 565.412 214.861 565.067 214.751C564.721 214.641 564.66 213.866 564.93 213.021C565.2 212.176 565.699 211.581 566.044 211.691C566.39 211.801 566.451 212.576 566.181 213.421Z" fill="#263238"/>
<path d="M564.278 209.13C564.278 209.13 565.604 207.24 567.58 208.379" stroke="#263238" stroke-miterlimit="10"/>
<path d="M560.956 218.479C560.956 218.479 561.686 221.107 564.898 221.399" stroke="#263238" stroke-miterlimit="10"/>
<path d="M575.056 191.452C575.056 191.452 577.558 197.366 574.601 201.233C571.644 205.1 564.138 205.327 559.588 211.241C555.039 217.155 556.858 224.889 557.996 227.391C559.133 229.893 557.314 239.447 554.129 240.811C550.944 242.176 545.713 243.086 547.078 246.27C548.443 249.455 550.035 254.914 548.67 257.643C547.305 260.373 538.662 265.149 531.838 262.647C525.014 260.145 525.242 255.141 527.061 251.729C528.881 248.317 525.241 249.909 521.374 244.45C517.507 238.991 512.73 229.437 518.872 224.66C525.014 219.883 529.79 218.291 530.245 213.742C530.7 209.193 528.36 198.388 534.274 193.838C540.188 189.288 543.534 190.366 543.534 190.366C543.534 190.366 549.124 184.172 555.266 184.172C561.407 184.172 563.91 188.039 563.91 188.039C563.91 188.039 571.644 181.899 575.056 191.452Z" fill="#263238" stroke="#263238" stroke-miterlimit="10"/>
<path d="M588.704 228.529L586.656 233.761L601.442 238.993L603.489 230.804L588.704 228.529Z" fill="white" stroke="#263238" stroke-miterlimit="10"/>
<path d="M537.925 385.939C537.925 385.939 508.695 396.191 509.047 398.306C509.399 400.421 516.272 418.924 519.092 421.92C521.912 424.916 523.145 426.678 523.674 424.211C524.203 421.744 523.498 418.748 523.498 417.514C523.498 416.28 524.908 402.182 525.436 401.478C525.965 400.773 541.927 395.055 541.927 395.055L537.925 385.939Z" fill="white" stroke="#263238" stroke-miterlimit="10"/>
<path d="M520.678 402.888L517.397 393.729C512.616 395.736 508.92 397.546 509.047 398.306C509.399 400.421 516.272 418.924 519.092 421.92C521.912 424.916 523.145 426.678 523.674 424.211C524.203 421.744 523.498 418.748 523.498 417.514C523.498 416.28 524.908 402.182 525.436 401.478L520.678 402.888Z" fill="white" stroke="#263238" stroke-miterlimit="10"/>
<path d="M542.149 419.066C542.149 419.066 533.795 447.838 534.071 449.409C534.346 450.981 542.297 453.455 545.353 454.322C548.409 455.189 556.159 454.879 558.225 454.043C560.291 453.207 561.599 451.535 559.972 450.931C558.345 450.327 553.86 449.196 553.86 449.196L547.316 440.602L553.711 421.511L542.149 419.066Z" fill="white" stroke="#263238" stroke-miterlimit="10"/>
<path d="M559.972 450.933C558.345 450.329 553.86 449.198 553.86 449.198L547.316 440.604L545.8 444.584L535.844 441.407C534.767 445.945 533.979 448.886 534.071 449.411C534.346 450.983 542.297 453.457 545.353 454.324C548.409 455.191 556.159 454.881 558.225 454.044C560.292 453.209 561.599 451.537 559.972 450.933Z" fill="white" stroke="#263238" stroke-miterlimit="10"/>
<path d="M339.457 184.686C339.457 184.686 348.303 192.611 349.594 192.611C350.885 192.611 352.174 188.741 354.201 191.505C356.228 194.27 354.201 197.403 354.201 197.403C354.201 197.403 362.31 206.249 361.02 207.908C359.73 209.567 353.649 213.068 353.649 213.068L352.358 228.549L335.771 223.941L335.587 218.228L326.925 212.515C326.925 212.515 322.318 204.774 325.451 197.218C328.583 189.662 339.457 184.686 339.457 184.686Z" fill="white" stroke="#263238" stroke-miterlimit="10"/>
<path d="M339.457 184.686C339.457 184.686 330.795 192.242 331.716 193.164C332.638 194.085 337.245 195.376 336.508 196.666C335.771 197.956 333.744 202.011 333.744 202.011C333.744 202.011 337.43 204.038 337.246 205.144C337.062 206.25 336.14 207.356 335.587 207.171C335.034 206.987 329.689 205.144 329.136 208.093C328.583 211.042 330.979 213.806 333.006 214.728C335.033 215.649 338.351 213.622 338.351 213.622C338.351 213.622 336.139 218.045 335.587 218.229C335.034 218.413 325.082 213.99 321.212 212.331C317.342 210.672 313.84 208.276 314.762 204.222C315.683 200.167 316.789 195.007 320.291 192.058C323.793 189.109 326.741 185.792 326.741 185.792C326.741 185.792 321.765 183.028 325.451 181.553C329.137 180.079 333.007 181.553 333.007 181.553C333.007 181.553 331.717 177.498 335.034 178.236C338.351 178.972 340.01 181.184 339.457 184.686Z" fill="#263238" stroke="#263238" stroke-miterlimit="10"/>
<path d="M353.648 213.068L347.75 216.385L352.911 220.071L353.648 213.068Z" fill="#263238" stroke="#263238" stroke-miterlimit="10"/>
<path d="M342.405 190.584C342.405 190.584 338.719 190.584 339.088 194.086" stroke="#263238" stroke-miterlimit="10"/>
<path d="M346.561 195.082C347.234 195.912 347.363 196.923 346.849 197.34C346.335 197.757 345.373 197.421 344.7 196.591C344.027 195.761 343.898 194.75 344.412 194.333C344.926 193.917 345.888 194.252 346.561 195.082Z" fill="#263238"/>
<path d="M325.906 432.215C325.906 432.215 326.816 441.314 327.726 442.678C328.636 444.043 337.279 448.365 339.099 450.184C340.919 452.004 336.824 453.369 334.777 454.278C332.73 455.188 330.455 454.96 326.361 453.823C322.267 452.686 318.4 449.274 315.898 448.136C313.396 446.999 307.027 444.951 307.482 443.359C307.937 441.767 315.898 428.801 315.898 428.801L325.906 432.215Z" fill="white" stroke="#263238" stroke-miterlimit="10"/>
<path d="M415.527 436.764C415.527 436.764 425.536 449.73 426.218 449.957C427.859 450.498 434.573 443.15 435.877 442.075C439.676 438.943 443.131 435.432 445.852 431.313C446.975 429.612 450.372 423.828 447.6 421.979C444.165 419.689 440 425.073 437.137 426.301C435.545 426.983 430.996 429.03 430.996 429.03L415.527 436.764Z" fill="white" stroke="#263238" stroke-miterlimit="10"/>
<path d="M334.549 315.07C334.549 315.07 335.231 326.671 336.141 328.036C337.051 329.401 340.235 340.092 340.235 340.092L332.956 381.718L314.531 427.893L327.724 433.807L354.11 385.13C354.11 385.13 363.209 361.701 363.436 361.019C363.663 360.337 415.525 436.765 415.525 436.765L426.443 429.714L391.868 354.423L374.808 313.934L334.549 315.07Z" fill="#263238" stroke="#263238" stroke-miterlimit="10"/>
<path d="M314.76 419.705L312.94 429.941L327.498 436.31L332.957 428.121L314.76 419.705Z" fill="white" stroke="#263238" stroke-miterlimit="10"/>
<path d="M410.523 434.263L416.437 440.177L430.995 429.031L425.535 422.207L410.523 434.263Z" fill="white" stroke="#263238" stroke-miterlimit="10"/>
<path d="M333.375 227.26C333.375 227.26 327.293 249.744 328.03 255.642C328.767 261.54 326.74 317.198 326.74 317.198C326.74 317.198 340.01 321.253 355.491 319.594C370.972 317.935 380.003 314.987 380.003 314.987C380.003 314.987 364.522 253.615 361.942 246.244C359.362 238.872 352.911 230.394 352.911 230.394L333.375 227.26Z" fill="white" stroke="#263238" stroke-miterlimit="10"/>
<path d="M333.928 221.361L331.532 228.549L356.412 234.999L357.149 226.706L333.928 221.361Z" fill="white" stroke="#263238" stroke-miterlimit="10"/>
<path d="M391.245 310.378L396.405 311.667C396.405 311.667 398.617 308.534 400.275 307.981C401.934 307.428 403.961 307.797 405.988 307.797C408.015 307.797 409.858 305.033 411.517 306.323C413.176 307.613 410.595 309.087 409.674 309.456C408.752 309.825 404.329 310.746 404.329 310.746C404.329 310.746 414.834 313.879 415.571 313.879C416.308 313.879 415.018 315.722 414.097 316.275C413.175 316.828 410.042 317.012 410.042 317.012C410.042 317.012 404.882 318.855 402.301 319.039C399.721 319.223 392.902 317.012 392.902 317.012L388.663 315.353L386.083 314.431L391.245 310.378Z" fill="white" stroke="#263238" stroke-miterlimit="10"/>
<path d="M339.272 237.395C339.272 237.395 331.531 244.398 333.559 250.849C335.586 257.299 384.425 319.04 384.425 319.04L394.562 309.456L351.989 238.501" fill="white"/>
<path d="M339.272 237.395C339.272 237.395 331.531 244.398 333.559 250.849C335.586 257.299 384.425 319.04 384.425 319.04L394.562 309.456L351.989 238.501" stroke="#263238" stroke-miterlimit="10"/>
<path d="M347.97 340.773L362.3 359.197" stroke="white" stroke-miterlimit="10"/>
<path d="M135.254 189.332C135.254 189.332 129.322 195.12 128.888 198.737C128.454 202.354 123.39 217.402 125.126 220.296C126.862 223.19 136.123 228.978 136.123 228.978C136.123 228.978 124.837 231.872 125.705 237.804C126.573 243.736 130.625 244.315 130.625 244.315C130.625 244.315 121.509 249.669 124.548 253.575C127.587 257.482 134.821 256.903 135.979 253.72C137.136 250.537 134.966 246.485 134.966 246.485C134.966 246.485 140.754 244.749 142.201 242.289C143.648 239.829 143.214 237.514 143.214 237.514C143.214 237.514 148.278 238.382 151.317 236.212C154.356 234.042 155.658 227.241 155.658 227.241C155.658 227.241 166.365 221.164 170.127 211.325C173.889 201.486 172.587 197.434 170.127 194.396C167.667 191.358 149.725 182.387 144.227 183.544C138.727 184.701 135.254 189.332 135.254 189.332Z" fill="#263238" stroke="#263238" stroke-miterlimit="10"/>
<path d="M147.553 225.938L150.447 239.394L165.35 230.712L161.299 224.924C161.299 224.924 151.026 228.397 147.553 225.938Z" fill="white" stroke="#263238" stroke-miterlimit="10"/>
<path d="M146.685 197.725L137.569 213.786C137.569 213.786 140.897 221.165 142.923 223.48C144.949 225.795 147.409 228.689 154.209 229.412C161.01 230.135 165.061 223.48 165.35 219.139C165.639 214.798 161.009 201.921 161.009 201.921L146.685 197.725Z" fill="white" stroke="#263238" stroke-miterlimit="10"/>
<path d="M138.727 215.233C138.727 215.233 134.386 213.497 135.399 217.114C136.412 220.731 141.042 220.731 141.042 220.731L138.727 215.233Z" fill="white" stroke="#263238" stroke-miterlimit="10"/>
<path d="M162.167 205.682C162.167 205.682 162.746 203.222 164.916 204.669C167.086 206.116 164.193 211.47 164.193 211.47L162.167 205.682Z" fill="white" stroke="#263238" stroke-miterlimit="10"/>
<path d="M150.881 213.496L152.762 217.837L155.656 216.679" stroke="#263238" stroke-miterlimit="10"/>
<path d="M150.592 220.875C150.592 220.875 156.524 223.479 158.839 217.113" stroke="#263238" stroke-miterlimit="10"/>
<path d="M154.788 210.457C154.788 210.457 156.669 207.997 159.129 208.721" stroke="#263238" stroke-miterlimit="10"/>
<path d="M151.749 204.959C151.749 204.959 154.064 202.065 157.537 203.078" stroke="#263238" stroke-miterlimit="10"/>
<path d="M146.54 206.84C146.54 206.84 142.489 205.104 140.752 209.734" stroke="#263238" stroke-miterlimit="10"/>
<path d="M147.449 213.195C147.819 213.948 147.711 214.759 147.209 215.005C146.707 215.252 146 214.841 145.63 214.087C145.26 213.334 145.368 212.523 145.87 212.277C146.373 212.03 147.08 212.441 147.449 213.195Z" fill="#263238"/>
<path d="M218.655 201.937C218.655 201.937 226.923 196.327 227.514 195.736C228.105 195.145 231.648 192.783 233.272 191.454C234.896 190.125 235.339 185.696 237.111 186.434C238.883 187.172 239.326 188.944 238.735 190.273C238.145 191.602 235.192 193.964 235.192 193.964C235.192 193.964 243.312 192.34 243.755 193.226C244.198 194.112 244.198 196.031 243.607 196.769C243.016 197.507 242.278 198.393 242.278 198.393C242.278 198.393 241.687 203.413 240.802 205.037C239.916 206.661 236.52 207.695 234.158 207.695C231.796 207.695 226.924 208.286 226.924 208.286L221.461 210.501L218.655 201.937Z" fill="white" stroke="#263238" stroke-miterlimit="10"/>
<path d="M146.427 291.216L146.041 297.969L188.296 294.11L186.366 287.936L146.427 291.216Z" fill="white" stroke="#263238" stroke-miterlimit="10"/>
<path d="M149.785 236.895C149.785 236.895 142.426 241.203 140.478 244.542C138.531 247.881 123.228 272.364 124.341 275.146C125.454 277.928 130.462 281.267 132.688 281.267C134.914 281.267 154.667 284.327 154.667 284.327L151.559 239.951L149.785 236.895Z" fill="white" stroke="#263238" stroke-miterlimit="10"/>
<path d="M144.93 270.695C144.93 270.695 138.531 275.703 132.966 277.094" stroke="#263238" stroke-miterlimit="10"/>
<path d="M143.696 271.91C143.696 271.91 141.528 276.502 138.722 278.287" stroke="#263238" stroke-miterlimit="10"/>
<path d="M218.655 201.938C218.655 201.938 153.397 234.124 148.672 236.339C143.947 238.554 139.075 248.888 140.256 257.008C141.437 265.128 147.048 273.987 147.49 275.316C147.932 276.645 146.014 287.719 145.571 289.786C145.128 291.853 145.276 293.477 147.195 294.363C149.114 295.249 185.582 290.228 186.911 289.49C188.24 288.752 189.421 286.981 188.535 283.88C187.649 280.78 183.958 272.658 183.958 271.92C183.958 271.182 177.609 250.955 177.609 250.955C177.609 250.955 207.433 225.708 210.829 221.574C214.225 217.44 221.459 210.501 221.459 210.501L218.655 201.938Z" fill="white" stroke="#263238" stroke-miterlimit="10"/>
<path d="M156.936 274.416C155.679 275.594 154.57 276.523 153.692 277.087" stroke="#263238" stroke-miterlimit="10"/>
<path d="M159.564 263.759C167.695 258.493 177.61 250.955 177.61 250.955C177.61 250.955 166.976 264.247 159.302 272.09" stroke="#263238" stroke-miterlimit="10"/>
<path d="M150.444 268.672C151.865 268.335 154.309 267.033 157.166 265.275" stroke="#263238" stroke-miterlimit="10"/>
<path d="M165.356 271.035C165.356 271.035 160.631 276.055 158.712 277.384" stroke="#263238" stroke-miterlimit="10"/>
<path d="M181.083 243.668C180.299 244.694 179.529 245.57 178.792 246.231" stroke="#263238" stroke-miterlimit="10"/>
<path d="M192.375 222.754C192.375 222.754 187.819 233.413 183.102 240.761" stroke="#263238" stroke-miterlimit="10"/>
<path d="M214.964 203.857L218.655 213.454" stroke="#263238" stroke-miterlimit="10"/>
<path d="M165.143 395.02L157.232 425.698L152.215 433.416L148.935 444.414L155.688 447.694C155.688 447.694 159.354 444.028 161.476 446.15C163.598 448.272 163.791 451.938 163.791 451.938C163.791 451.938 174.017 455.025 176.139 454.832C178.261 454.639 181.541 455.218 181.927 454.253C182.313 453.288 182.506 445.956 181.541 444.992C180.87 444.321 173.856 442.076 169.386 438.239C167.432 436.562 165.955 431.469 165.72 431.293C164.948 430.714 181.541 397.142 181.541 397.142L165.143 395.02Z" fill="white" stroke="#263238" stroke-miterlimit="10"/>
<path d="M181.929 454.254C182.315 453.289 182.508 445.957 181.543 444.993C180.872 444.322 173.858 442.077 169.387 438.24C167.433 436.563 165.956 431.47 165.721 431.294C165.643 431.235 165.75 430.824 165.994 430.157L156.663 426.574L152.216 433.416L148.936 444.414L155.689 447.694C155.689 447.694 159.355 444.028 161.477 446.15C163.6 448.272 163.792 451.938 163.792 451.938C163.792 451.938 174.018 455.025 176.14 454.832C178.263 454.639 181.543 455.218 181.929 454.254Z" fill="#263238" stroke="#263238" stroke-miterlimit="10"/>
<path d="M194.47 385.565L213.359 432.701C213.359 432.701 212.143 439.821 213.359 441.731C214.574 443.641 217.353 450.587 217.353 450.587L227.425 448.156C227.425 448.156 226.557 444.683 229.335 444.857C232.113 445.031 234.197 446.246 234.197 446.246C234.197 446.246 242.359 441.905 244.79 440.516C247.221 439.127 248.437 437.217 248.263 436.522C248.089 435.827 245.658 430.444 242.88 430.965C240.102 431.486 234.892 433.743 232.287 433.743C229.682 433.743 223.952 431.833 222.736 429.749C221.521 427.665 213.378 392.704 213.378 392.704L211.063 375.918L202.766 347.555L194.47 385.565Z" fill="white" stroke="#263238" stroke-miterlimit="10"/>
<path d="M248.263 436.521C248.089 435.826 245.658 430.443 242.88 430.964C240.102 431.485 234.892 433.742 232.287 433.742C229.682 433.742 223.952 431.832 222.736 429.748C222.616 429.543 222.428 429.01 222.188 428.232L213.093 432.035L213.359 432.7C213.359 432.7 212.143 439.82 213.359 441.73C214.574 443.64 217.353 450.586 217.353 450.586L227.425 448.155C227.425 448.155 226.557 444.682 229.335 444.856C232.114 445.03 234.197 446.245 234.197 446.245C234.197 446.245 242.359 441.904 244.79 440.515C247.221 439.126 248.436 437.216 248.263 436.521Z" fill="#263238" stroke="#263238" stroke-miterlimit="10"/>
<path d="M146.041 297.967L133.307 398.298C133.307 398.298 149.9 400.42 169.002 399.842C188.103 399.263 193.12 398.491 193.12 398.491L202.96 352.763L213.379 392.702L218.203 391.158C218.203 391.158 212.801 358.743 209.714 351.797C206.627 344.851 188.297 294.107 188.297 294.107L146.041 297.967Z" fill="#263238" stroke="#263238" stroke-miterlimit="10"/>
</svg>
