<svg width="1024" height="1024" viewBox="0 0 1024 1024" fill="none" xmlns="http://www.w3.org/2000/svg">
<g clip-path="url(#clip0_274_2)">
<path d="M594.607 748.481L595.503 747.503L596.5 747.255C597.658 746.775 597.699 746.957 598.928 747.207C598.678 747.638 598.323 748.023 598.178 748.5C597.735 749.957 598.155 753.346 598.147 755.028C598.113 762.233 598.079 769.438 598.047 776.643C597.88 813.847 597.119 851.203 597.921 888.394C610.362 885.213 623.024 886.616 634.095 893.404C637.09 895.24 639.848 897.817 642.537 900.079C649.239 900.638 653.78 903.608 658.084 908.702L659.453 910.352C665.6 920.789 668.873 931.704 667.384 943.887C660.742 948.306 649.192 949.206 641.387 950.033C617.713 952.542 590.002 951.749 567.213 944.372C563.914 943.304 559.439 941.931 556.824 939.638C555.05 938.083 555.253 935.02 555.189 932.814C554.916 923.485 557.543 912.698 564.09 905.823C564.726 905.107 564.545 903.856 564.601 902.903C564.378 900.002 565.32 897.334 566.571 894.75C567.33 894.291 567.978 893.844 568.637 893.25L568.515 755.268C569.624 754.671 570.791 754.655 572.019 754.541C576.68 754.294 582.081 752.465 586.618 751.25C589.299 750.532 592.246 749.98 594.607 748.481Z" fill="url(#paint0_linear_274_2)"/>
<path d="M605.708 890.171L610.673 889.734C609.684 891.607 607.395 897.605 605.751 898.344C603.542 897.499 600.899 897.287 598.928 896L598.826 892.25C600.222 890.501 603.55 890.483 605.708 890.171Z" fill="white"/>
<path d="M613.759 889.934C618.306 890.656 622.255 891.758 626.534 893.458L620.247 901.76C619.458 902.935 619.014 903.847 617.75 904.557L609.205 899.744L613.759 889.934Z" fill="white"/>
<path d="M629.349 895.297C633.271 896.413 636.441 899.482 639.343 902.205C635.294 904.775 631.783 907.657 628.313 910.963C627.671 911.638 627.376 911.841 626.578 912.25L620.419 905.978L629.349 895.297Z" fill="white"/>
<path d="M558.891 929.71C584.883 940.229 637.624 942.983 663.546 932.069C663.991 935.065 663.924 937.942 663.838 940.959C662.619 942.514 660.491 942.905 658.666 943.425C646.365 946.936 632.646 947.517 619.906 947.524C600.528 947.534 576.198 946.34 558.944 936.707L558.891 929.71Z" fill="white"/>
<path d="M585.179 899.143L591.708 899.136C606.204 900.402 617.275 906.983 626.478 917.907C631.506 911.751 636.306 907.165 643.333 903.388L648.692 905.75C656.618 910.062 660.336 920.396 662.88 928.471C658.387 930.179 654.133 931.369 649.443 932.377C625.763 937.535 581.31 936.31 559.176 925.702C560.399 920.312 561.964 914.753 565.254 910.229C570.068 903.609 577.338 900.451 585.179 899.143Z" fill="#1EADC9"/>
<path d="M594.607 748.481C594.36 780.704 594.098 812.92 594.088 845.145C594.085 854.448 594.078 863.751 594.09 873.054C594.098 878.511 593.826 884.141 594.483 889.562C591.072 891.146 588.652 892.356 586.127 895.225C582.189 895.93 575.893 896.441 572.569 898.642C570.943 899.719 569.661 901.243 568.078 902.339C566.897 902.603 565.813 902.827 564.601 902.903C564.378 900.002 565.32 897.334 566.571 894.75C567.33 894.291 567.978 893.844 568.637 893.25L568.515 755.268C569.624 754.671 570.791 754.655 572.019 754.541C576.68 754.294 582.081 752.465 586.618 751.25C589.299 750.532 592.246 749.98 594.607 748.481Z" fill="#1EADC9"/>
<path d="M568.515 755.268C569.624 754.671 570.791 754.655 572.019 754.541L572.109 893.003C574.359 892.49 578.933 890.498 580.893 891.25C580.948 892.051 581.315 893.355 580.693 893.927C579.37 895.144 576.045 895.742 574.295 896.482C572.491 897.244 570.677 897.327 568.75 897.449C567.592 898.704 568.05 900.651 568.078 902.339C566.897 902.603 565.813 902.827 564.601 902.903C564.378 900.002 565.32 897.334 566.571 894.75C567.33 894.291 567.978 893.844 568.637 893.25L568.515 755.268Z" fill="#1B1E24"/>
<path d="M843.617 665.031C846.335 655.75 850.025 648.724 858.719 643.829C866.254 639.588 874.337 639.567 882.475 641.777C880.101 644.474 871.408 644.417 867.647 645.686C864.013 646.913 860.523 648.933 857.555 651.344C853.29 654.808 850.676 658.769 847.452 663.077C846.358 664.54 845.3 664.69 843.617 665.031Z" fill="#98DBE1"/>
<path d="M830.021 665.525C831.417 665.363 833.122 665.251 834.5 665.575C836.543 666.056 838.8 667.532 839.947 669.305C841.008 670.947 841.329 672.966 840.862 674.866C839.961 678.535 837.768 680.829 834.565 682.595L830.5 682.482C828.26 682.112 826.096 680.443 824.902 678.55C823.731 676.695 823.29 674.823 823.843 672.677C824.742 669.185 827.012 667.262 830.021 665.525Z" fill="#1EADC9"/>
<path d="M187.667 665.549C189.464 665.468 191.44 665.278 193.168 665.884C195.704 666.774 197.944 669.258 198.973 671.695C199.852 673.777 199.837 677.461 198.853 679.474C197.771 681.687 196.256 682.291 194.015 683.045C189.286 683.075 185.695 682.171 181.305 680.474L181.596 674.865C182.132 670.385 184.209 668.139 187.667 665.549Z" fill="#1EADC9"/>
<path d="M131.47 646.138L131.545 647.023C131.654 649.478 128.752 653.152 127.69 655.414C122.337 666.822 119.142 681.136 121.787 693.647L121.979 694.578C123.595 702.078 128.58 711.812 135.243 715.875C140.896 719.322 148.462 719.633 154.769 718.002L159.75 716.762L161.052 717.665L159.135 718.792C153.28 721.973 145.279 723.248 138.824 721.34L138 721.083C131.077 718.989 125.305 714.528 121.176 708.633C114.097 698.528 112.063 685.584 114.211 673.57C116.199 662.448 122.214 652.632 131.47 646.138Z" fill="#98DBE1"/>
<path d="M477.973 133.344L477.301 132.92C476.147 131.333 476.26 127.686 476.208 125.75C475.929 115.177 480.449 104.476 487.762 96.9224C496.871 87.5141 507.801 82.6219 521 82.5716C532.473 82.5278 544.452 87.5962 552.468 95.7594C561.808 105.271 564.943 116.603 564.935 129.591L564.556 128.722C563.168 125.472 562.493 121.964 561.049 118.714C556.746 109.026 547.724 99.8765 537.92 95.8208C526.999 91.3032 514.668 91.4517 503.784 96.036C494.032 100.144 485.123 108.909 481.213 118.797C479.656 122.736 478.744 127.117 478.408 131.337C478.352 132.039 478.178 132.675 477.973 133.344Z" fill="white"/>
<path d="M215.415 504.097C212.215 491.244 210.624 476.397 210.139 463.168C209.502 445.812 209.534 428.275 211.499 411C218.846 346.417 247.849 285.215 292.032 237.702C337.287 189.037 398.178 154.832 464.159 144.727C477.871 142.627 491.75 141.992 505.598 141.496L504.821 141.904C503.126 142.704 500.986 142.574 499.139 142.719C496.344 142.938 493.537 143.194 490.75 143.505C483.818 144.278 476.81 145.189 469.926 146.3C459.065 148.052 448.261 150.547 437.672 153.516C347.913 178.683 273.624 245.23 237.015 330.75C218.692 373.551 209.713 418.928 211.665 465.484C211.996 473.368 212.6 481.163 213.506 489C214.079 493.953 215.455 499.133 215.415 504.097Z" fill="white"/>
<path d="M477.973 133.344C478.178 132.675 478.352 132.039 478.408 131.337C478.744 127.117 479.656 122.736 481.213 118.797C485.123 108.909 494.032 100.144 503.784 96.036C514.668 91.4517 526.999 91.3032 537.92 95.8208C547.724 99.8765 556.746 109.026 561.049 118.714C562.493 121.964 563.168 125.472 564.556 128.722L564.935 129.591L565.18 135.983C546.393 132.729 527.491 131.318 508.428 131.461C498.372 131.537 487.913 131.789 477.973 133.344Z" fill="#FAAF08"/>
<path d="M200.332 473.859C202.065 475.528 203.941 495.312 204.774 499.363L204.468 499.652C197.975 505.969 193.359 515.228 189.08 523.153C177.722 544.19 168.981 566.838 164.25 590.324C161.091 606.004 159.906 621.894 159.473 637.849C155.379 636.585 151.724 636.167 147.45 636.188C145.33 636.366 143.334 636.76 141.261 637.232C142.132 588.08 155.308 541.615 181.52 499.901C187.089 491.039 193.176 481.516 200.332 473.859Z" fill="#1EADC9"/>
<path d="M820.886 470.814C824.727 474.743 828.108 479.95 831.415 484.37C853.729 514.194 870.018 549.819 876.738 586.602C879.341 600.847 881.681 615.667 881.982 630.172C882.023 632.143 882.573 636.021 881.5 637.577L878.899 637.137C873.494 636.029 868.85 636.717 863.548 637.91C863.637 589.198 848.92 536.12 818.113 497.701L820.886 470.814Z" fill="#1EADC9"/>
<path d="M427.452 749.768L449.495 754.896L449.579 844.804L449.568 893.907C445.878 893.188 442.13 892.179 438.399 892.939C435.454 893.539 429.965 889.393 427.019 888.388C427.061 882.234 427.103 876.08 427.143 869.926C427.163 866.718 427.423 863.327 427.087 860.142L427.452 749.768Z" fill="#1EADC9"/>
<path d="M131.47 646.138C135.858 642.669 140.968 640.662 146.5 639.968L147.461 639.842C154.772 638.97 161.626 641.927 167.213 646.493C172.862 651.11 176.837 658.09 178.941 665L179.153 665.681C180.892 671.997 175.829 678.406 179.881 684.75C178.561 695.923 174.026 707.808 164.976 714.996C163.794 715.935 162.439 717.082 161.052 717.665L159.75 716.762L154.769 718.002C148.462 719.633 140.896 719.322 135.243 715.875C128.58 711.812 123.595 702.078 121.979 694.578L121.787 693.647C119.142 681.136 122.337 666.822 127.69 655.414C128.752 653.152 131.654 649.478 131.545 647.023L131.47 646.138Z" fill="#6FB98F"/>
<path d="M882.475 641.777C893.515 645.836 902.047 654.634 906.986 665.182C911.888 675.651 913.809 688.227 909.763 699.302C906.381 708.559 899.998 715.974 891 720.134C883.558 723.575 876.128 722.958 868.581 720.133C858.255 716.268 850.04 707.446 845.61 697.485C843.337 692.373 842.206 686.878 841.625 681.333C844.206 677.069 845.396 674.54 844.162 669.439L843.623 667.67C843.306 666.603 843.385 666.094 843.617 665.031C845.3 664.69 846.358 664.54 847.452 663.077C850.676 658.769 853.29 654.808 857.555 651.344C860.523 648.933 864.013 646.913 867.647 645.686C871.408 644.417 880.101 644.474 882.475 641.777Z" fill="#6FB98F"/>
<path d="M423.923 749.102L426.521 749.897C427.135 751.622 426.83 753.89 426.831 755.733C426.833 759.943 426.831 764.152 426.828 768.362C426.816 789.363 426.791 810.365 426.783 831.366C426.78 837.264 426.778 843.162 426.782 849.06C426.784 852.692 426.51 856.557 427.087 860.142C427.423 863.327 427.163 866.718 427.143 869.926C427.103 876.08 427.061 882.234 427.019 888.388C429.965 889.393 435.454 893.539 438.399 892.939C442.13 892.179 445.878 893.188 449.568 893.907L449.579 844.804L449.703 844.384C450.56 841.211 450.292 837.708 450.422 834.437C450.783 825.38 450.518 816.37 450.61 807.312C450.694 798.966 450.73 790.633 450.708 782.285C450.699 779.107 451.283 774.818 450.395 771.816C449.946 770.295 450.339 768.105 450.361 766.502C450.411 762.865 450.188 759.337 450.34 755.661L450.855 755.35L452 756.25L451.877 756.81C451.389 759.803 451.739 763.39 451.739 766.455C451.737 773.076 451.74 779.697 451.746 786.318C451.748 788.432 451.206 793.426 452.255 795C452.244 810.589 452.235 826.179 452.239 841.768C452.241 848.565 451.388 856.486 452.577 863.073C452.736 867.524 452.053 892.569 453.614 894.432C455.478 896.655 455.899 900.847 455.441 903.649L455.123 905L455.059 906.375C461.293 913.739 464.177 926 463.305 935.5L462.787 939.284C448.359 948.772 427.716 950.109 410.863 950.729C398.082 951.2 384.713 951.122 372.144 948.511C365.054 947.038 356.57 945.19 351.015 940.25C349.299 936.898 350.746 931.02 351.836 927.61C353.728 921.687 357.039 916.403 361.008 911.664C368.816 903.588 378.423 896.368 388.639 891.617C395.607 888.376 406.253 883.775 414 884.592C417.271 884.937 420.47 886.223 423.534 887.351L423.923 749.102Z" fill="#1B1E24"/>
<path d="M442.849 896.094C443.856 896.326 443.458 896.191 444.353 896.552C446.873 897.569 448.255 897.966 450.991 897.539L451.5 897.455L452.476 898.25L452.635 902.388C450.392 902.587 446.74 899.134 444.375 897.984C443.424 897.523 443.358 896.995 442.849 896.094Z" fill="#1EADC9"/>
<path d="M412.372 887.829C416.07 888.473 419.984 889.186 423.25 891.157L423.461 895.869L416.613 896.725L412.372 887.829Z" fill="white"/>
<path d="M407.263 888.5L408.903 888.587L413.666 897.686L403.25 902.56C400.263 900.067 397.696 895.984 395.794 892.588L407.263 888.5Z" fill="white"/>
<path d="M393.408 893.502C395.296 897.36 397.53 900.678 400.08 904.132C397.08 906.567 394.325 909.848 390.983 911.765C387.962 907.83 385.011 903.875 382.991 899.318C386.319 897.04 389.794 895.278 393.408 893.502Z" fill="white"/>
<path d="M458.57 930.517L459.812 930.65C459.995 932.525 459.894 934.139 459.656 936.005C457.617 938.856 452.7 940.284 449.476 941.392C437.819 945.402 425.197 946.651 412.948 947.236C394.547 948.114 372.878 947.808 356.019 939.605L354.106 937.952C353.73 935.687 354.469 932.979 354.824 930.713L356.13 931.381C368.517 937.545 384.373 938.462 397.977 938.585C418.626 938.772 438.894 937.183 458.57 930.517Z" fill="white"/>
<path d="M424.299 899.194C431.547 898.103 440.341 899.498 446.472 903.609C454.116 908.734 457.7 917.981 459.504 926.606C442.33 932.935 423.136 934.913 404.922 935.065C396.221 935.138 387.512 934.996 378.882 933.793C370.85 932.95 362.91 931.056 355.681 927.425C360.552 915.943 369.619 907.494 379.919 900.792C383.145 906.537 386.944 912.262 391.634 916.906C392.346 915.666 393.173 914.493 394.084 913.391C401.136 904.856 413.663 900.443 424.299 899.194Z" fill="#1EADC9"/>
<path d="M505.598 141.496C519.43 140.283 534.517 141.656 548.245 143.416C603.266 150.47 656.283 172.085 698.905 207.956C719.198 225.034 737.93 244.344 753.587 265.794C787.646 312.454 806.295 367.625 811.137 424.917C817.691 502.448 791.727 582.827 741.504 642.215C733.136 652.11 724.343 662.004 714.784 670.775C666.714 714.882 600.339 744.849 535.257 750.177C511.971 752.083 488.597 752.12 465.413 748.932C457.879 747.896 450.361 746.158 442.949 744.478C399.153 734.557 356.224 714.129 321.949 684.94C304.098 669.739 287.212 652.78 272.9 634.182C251.786 606.745 236.015 575.676 225.104 542.896C222.035 533.675 219.503 524.503 217.487 515C216.766 511.601 215.661 507.989 215.427 504.532L215.415 504.097C215.455 499.133 214.079 493.953 213.506 489C212.6 481.163 211.996 473.368 211.665 465.484C209.713 418.928 218.692 373.551 237.015 330.75C273.624 245.23 347.913 178.683 437.672 153.516C448.261 150.547 459.065 148.052 469.926 146.3C476.81 145.189 483.818 144.278 490.75 143.505C493.537 143.194 496.344 142.938 499.139 142.719C500.986 142.574 503.126 142.704 504.821 141.904L505.598 141.496Z" fill="#FF5454"/>
<path d="M506.364 187.735C572.564 185.934 635.529 211.715 683.624 256.817C724.067 294.743 751.54 345.404 761.955 399.853C764.193 411.551 766.073 423.766 766.436 435.689C766.816 448.158 766.782 460.839 765.497 473.25C759.819 528.049 735.949 583.038 697.933 623.188C649.832 673.989 584.808 702.144 515.011 704.053C450.97 704.037 385.589 681.194 338.303 637.264C325.929 625.768 314.324 613.393 304.314 599.769C273.812 558.253 256.28 506.423 254.548 454.989C252.255 386.94 278.04 319.562 324.323 269.811C357.135 234.54 400.768 207.466 447.555 195.596C467.116 190.633 486.235 188.446 506.364 187.735Z" fill="#1C2832"/>
<path d="M510.217 194.318L510.639 194.29C571.351 191.09 634.923 214.607 680.367 254.651C694.943 267.495 708.312 281.321 719.922 296.922C750.526 338.046 768.128 388.558 770.983 439.636C774.535 503.18 750.462 571.346 708.093 618.871C676.283 654.551 634.414 681.156 588.319 694.078C568.799 699.55 548.784 702.447 528.574 703.577C463.051 705.924 397.005 681.294 348.478 637.368C297.775 591.473 269.468 527.587 266.251 459.511C263.223 395.466 287.763 327.008 331.062 279.597C357.768 250.355 390.461 226.376 427.364 211.628C453.905 201.021 481.75 195.568 510.217 194.318Z" fill="#6FB98F"/>
<path d="M393.574 232.11C396.749 231.924 399.033 232.028 401.906 233.617C405.098 235.383 407.108 238.276 408.087 241.733C408.95 244.783 408.307 247.96 406.729 250.676C404.605 254.331 401.955 255.922 397.975 257.069C394.676 257.145 391.84 257.085 388.996 255.185C385.018 252.527 383.796 248.84 382.834 244.445C383.078 243.126 383.317 241.762 383.841 240.52C385.664 236.2 389.395 233.749 393.574 232.11Z" fill="#1B1E24"/>
<path d="M394.588 235.503C395.925 235.453 397.362 235.355 398.668 235.702C400.833 236.277 402.748 238.244 403.839 240.134C404.958 242.074 405.45 245.042 404.703 247.19C403.457 250.767 400.523 252.306 397.369 253.884C395.861 253.77 394.232 253.705 392.792 253.205C390.45 252.393 388.437 250.346 387.454 248.103C386.571 246.09 386.195 243.836 387.075 241.75C388.489 238.397 391.444 236.851 394.588 235.503Z" fill="#FAAF08"/>
<path d="M508.813 666.157C510.876 666.289 513.023 666.443 514.938 667.289C518.319 668.781 520.582 671.409 521.819 674.829C522.935 677.916 522.767 681.37 521.22 684.281C519.019 688.424 515.625 690.019 511.368 691.249C508.458 691.155 505.705 691.017 503.166 689.435C500.218 687.599 498.203 684.887 497.438 681.485C496.638 677.927 497.161 674.658 499.186 671.59C501.543 668.017 504.824 666.963 508.813 666.157Z" fill="#1B1E24"/>
<path d="M507.565 669.511C509.232 669.446 511.032 669.315 512.647 669.817C514.891 670.514 517.196 672.592 518.12 674.75C519.117 677.078 519.251 679.835 518.258 682.17C517 685.128 515.004 686.447 512.114 687.605C510.49 687.667 508.597 687.806 507.034 687.316C504.557 686.541 502.433 684.608 501.365 682.254C500.436 680.207 500.192 677.873 500.996 675.75C502.265 672.398 504.419 670.907 507.565 669.511Z" fill="#FAAF08"/>
<path d="M620.851 634.537C622.658 634.454 624.507 634.302 626.257 634.847C629.931 635.99 633.023 638.49 634.673 641.993C636.078 644.975 636.261 648.176 635.023 651.25C633.248 655.658 629.99 657.65 625.834 659.423C623.394 659.685 620.542 659.872 618.25 658.863C614.818 657.35 612.186 654.063 610.983 650.562C609.879 647.349 610.371 643.664 611.968 640.726C613.943 637.093 617.073 635.645 620.851 634.537Z" fill="#1B1E24"/>
<path d="M622.283 637.584C623.656 637.697 625.189 637.762 626.462 638.323C628.877 639.387 630.69 641.579 631.608 644C632.582 646.569 632.529 648.771 631.278 651.25C629.843 654.094 627.731 655.183 624.857 656.252C622.819 656.195 620.754 656.238 618.911 655.25C616.754 654.092 614.932 651.867 614.273 649.504C613.569 646.976 613.952 644.125 615.308 641.887C616.938 639.199 619.388 638.357 622.283 637.584Z" fill="#FAAF08"/>
<path d="M740.64 433.594C742.575 433.506 744.864 433.212 746.731 433.794L747.25 433.973L748.591 434.444C751.671 435.692 754.171 438.198 755.42 441.278C756.703 444.443 756.702 447.936 755.361 451.073C753.647 455.082 750.745 456.807 746.903 458.357C744.378 458.482 741.655 458.814 739.25 457.882C735.839 456.56 733.211 454.068 731.843 450.656C730.606 447.569 730.712 443.885 732.062 440.852C733.843 436.849 736.743 435.096 740.64 433.594Z" fill="#1B1E24"/>
<path d="M742.122 436.56C743.611 436.502 745.058 436.549 746.5 436.975C748.705 437.626 750.799 439.417 751.803 441.489C752.942 443.838 753.142 447.547 752.145 449.957C750.973 452.789 748.756 454.077 746.067 455.225C744.379 455.186 742.447 455.267 740.801 454.884C738.313 454.305 735.919 451.705 734.869 449.485C733.993 447.634 734.252 444.097 735.078 442.25C736.486 439.103 739.111 437.801 742.122 436.56Z" fill="#FAAF08"/>
<path d="M707.342 549.56C709.842 549.43 711.907 549.599 714.25 550.554C717.344 551.814 720.076 554.278 721.247 557.46C722.399 560.593 722.269 564.683 720.789 567.681C718.802 571.704 715.664 573.385 711.637 574.7C709.369 574.854 706.869 574.818 704.75 573.903C701.113 572.333 698.399 569.614 697.111 565.828C696.065 562.754 696.349 559.574 697.819 556.706C699.927 552.594 703.164 550.897 707.342 549.56Z" fill="#1B1E24"/>
<path d="M707.56 553.025C708.917 553.01 710.377 552.941 711.706 553.248C714.038 553.785 716.362 555.614 717.441 557.75C718.718 560.28 718.492 563.185 717.468 565.75C716.245 568.809 713.859 570.299 710.943 571.501C709.305 571.53 707.658 571.392 706.113 570.806C703.895 569.965 701.926 568.203 700.992 566.005C699.96 563.576 699.873 560.938 700.906 558.49C702.154 555.535 704.769 554.154 707.56 553.025Z" fill="#FAAF08"/>
<path d="M621.574 232.117C624.217 231.825 627.228 231.686 629.75 232.651C632.837 233.832 635.266 236.428 636.584 239.419C637.941 242.499 637.856 246.175 636.583 249.266C634.993 253.123 632.28 255.301 628.528 256.906C625.856 257.227 623.36 257.276 620.75 256.47C617.646 255.512 614.595 252.373 613.315 249.446C611.977 246.385 611.872 242.561 613.226 239.486C614.984 235.49 617.746 233.727 621.574 232.117Z" fill="#1B1E24"/>
<path d="M621.947 235.566C623.788 235.315 625.785 235.171 627.614 235.585C629.838 236.087 631.918 237.75 632.982 239.75C634.191 242.02 634.394 245.35 633.47 247.75C632.307 250.776 630.448 252.169 627.654 253.563C626 253.704 624.04 253.77 622.411 253.456C620.242 253.039 618.328 251.257 617.168 249.469C615.646 247.126 614.977 244.51 615.777 241.751C616.686 238.612 619.203 236.97 621.947 235.566Z" fill="#FAAF08"/>
<path d="M707.584 320.147C709.927 320 712.754 320.149 714.918 321.1C718.266 322.571 720.948 325.546 722.175 328.996C723.302 332.161 723.174 335.243 721.714 338.287C719.765 342.352 716.336 343.906 712.355 345.326C711.238 345.431 710.125 345.511 709.005 345.393C705.128 344.986 701.977 343.11 699.651 339.992C697.819 337.535 696.739 334.157 697.288 331.097L697.408 330.5C697.665 329.176 697.978 327.949 698.613 326.746C700.563 323.047 703.804 321.408 707.584 320.147Z" fill="#1B1E24"/>
<path d="M707.447 323.552C709.167 323.347 711.197 323.178 712.877 323.648C715.401 324.355 717.413 326.348 718.541 328.655C719.722 331.068 719.721 333.381 718.813 335.883C717.695 338.965 715.467 340.375 712.641 341.754C710.982 341.914 709.446 341.93 707.804 341.567C705.321 341.019 703.053 339.011 701.84 336.817C700.642 334.648 700.308 332.377 701.047 330C702.071 326.707 704.505 325.038 707.447 323.552Z" fill="#FAAF08"/>
<path d="M508.425 202.567C510.962 202.424 513.53 202.96 515.815 204.092C518.911 205.626 520.898 208.08 521.996 211.319C523.142 214.702 522.734 218.301 521.014 221.395C518.723 225.517 515.722 227.018 511.407 228.295C509.067 228.393 506.616 228.196 504.466 227.17C501.446 225.727 498.841 222.655 497.782 219.496C496.637 216.082 496.973 212.47 498.712 209.325C500.923 205.328 504.258 203.753 508.425 202.567Z" fill="#1B1E24"/>
<path d="M509.263 205.574C510.466 205.7 511.744 205.795 512.888 206.205C515.249 207.052 517.269 209.108 518.193 211.426C519.275 214.14 519.194 217.116 517.901 219.75C516.451 222.702 514.098 223.808 511.12 224.755C509.606 224.681 507.901 224.655 506.452 224.158C504.482 223.483 502.53 221.711 501.668 219.809C500.431 217.083 500.354 213.815 501.649 211.095C503.262 207.707 505.874 206.649 509.263 205.574Z" fill="#FAAF08"/>
<path d="M396.73 633.136C399.029 633.197 401.41 633.332 403.494 634.386C407.058 636.187 409.505 639.244 410.652 643.071C411.594 646.215 410.851 650.078 409.107 652.817C406.712 656.58 403.628 658.092 399.434 659.022C396.585 658.755 393.978 658.433 391.459 656.931C388.465 655.146 386.491 652.644 385.634 649.266C384.767 645.847 385.381 642.214 387.256 639.23C389.51 635.645 392.748 634.109 396.73 633.136Z" fill="#1B1E24"/>
<path d="M397.28 636.545C398.745 636.588 400.147 636.811 401.5 637.396C404.252 638.585 405.904 640.553 406.883 643.336C407.734 645.754 407.197 648.53 405.979 650.75C404.426 653.581 402.208 654.666 399.263 655.641C397.605 655.531 395.65 655.251 394.129 654.554C391.856 653.512 390.135 651.591 389.321 649.25C388.395 646.587 388.641 643.986 390.008 641.5C391.622 638.567 394.226 637.47 397.28 636.545Z" fill="#FAAF08"/>
<path d="M308.06 322.111C311.173 321.766 314.072 321.735 317 322.995C320.255 324.396 322.651 326.94 323.917 330.25C325.07 333.26 324.824 336.931 323.496 339.839C321.739 343.683 318.934 345.67 315.073 347.06C313.119 347.617 309.92 347.814 307.899 347.316C304.961 346.591 302.089 344.03 300.696 341.401C298.758 337.743 298.563 333.582 299.966 329.729C301.416 325.744 304.378 323.843 308.06 322.111Z" fill="#1B1E24"/>
<path d="M310.125 325.073C311.602 325.049 313.116 324.994 314.534 325.471C317.108 326.338 319.349 328.121 320.414 330.655C321.467 333.158 321.348 336.167 320.227 338.622C318.81 341.724 316.686 343.118 313.568 344.253C312.042 344.341 310.166 344.333 308.693 343.897C306.608 343.281 304.723 341.283 303.75 339.403C302.371 336.738 302.123 333.563 303.211 330.75C304.453 327.539 307.138 326.266 310.125 325.073Z" fill="#FAAF08"/>
<path d="M276.206 432.099C279.092 432.056 281.46 432.003 284.17 433.178C287.396 434.576 289.938 437.346 291.081 440.677C292.119 443.702 291.66 447.682 290.276 450.512C288.366 454.414 285.574 456.143 281.608 457.52C279.207 457.745 276.528 457.819 274.25 456.924C270.585 455.484 267.934 452.607 266.593 448.94C265.423 445.742 265.788 441.675 267.28 438.633C269.191 434.737 272.294 433.366 276.206 432.099Z" fill="#1B1E24"/>
<path d="M276.562 435.515C278.169 435.451 279.892 435.302 281.449 435.791C283.944 436.575 286.495 438.489 287.534 440.945C288.387 442.962 288.274 445.708 287.542 447.75C286.306 451.196 284.201 452.786 280.982 454.339C279.303 454.488 277.57 454.394 275.942 453.92C273.801 453.297 271.717 451.347 270.639 449.429C269.41 447.242 269.069 444.257 269.842 441.853C270.948 438.412 273.494 436.992 276.562 435.515Z" fill="#FAAF08"/>
<path d="M309.298 548.576C312.025 548.414 314.165 548.453 316.75 549.535C320.252 551 322.656 553.456 323.901 557.056C325.022 560.3 324.678 563.903 323.163 566.952C321.108 571.086 318.167 572.799 313.972 574.229C311.55 574.418 309.544 574.391 307.25 573.519C303.94 572.261 301.326 569.755 299.949 566.481C298.371 562.731 298.262 559.206 300.013 555.488C301.891 551.504 305.402 549.931 309.298 548.576Z" fill="#1B1E24"/>
<path d="M308.494 552.073C310.384 551.752 312.372 551.646 314.25 552.13C316.503 552.71 318.761 554.496 319.963 556.476C321.145 558.423 321.363 561.08 320.793 563.25C319.911 566.61 317.54 568.614 314.688 570.329C313.075 570.741 311.476 571.102 309.816 570.724C306.884 570.058 304.661 568.362 303.21 565.72C302.004 563.524 302.001 560.314 302.74 557.981C303.729 554.864 305.801 553.599 308.494 552.073Z" fill="#FAAF08"/>
<path d="M478.022 494.49C479.204 494.444 480.52 494.325 481.68 494.587C487.933 496.003 487.358 502.679 488.469 507.5C488.964 509.647 489.821 511.558 491.05 513.385C494.239 518.131 499.05 521.306 504.688 522.298C509.806 523.199 515.997 522.244 520.231 519.147C526.447 514.6 527.581 509.652 528.701 502.538C529.155 499.657 530.142 497.161 532.75 495.59C534.568 494.496 537.169 494.282 539.151 494.966C541.572 495.802 543.4 497.652 544.436 499.971C546.299 504.139 544.088 511.002 542.669 515.09C540.026 522.615 535.246 528.498 528.623 532.897C520.651 538.192 510.156 540.276 500.761 538.274C491.258 536.249 483.19 531.016 477.844 522.868C474.237 517.372 470.412 507.159 472.15 500.585C472.934 497.618 475.568 495.946 478.022 494.49Z" fill="#1C2832"/>
<path d="M529.883 287.337L532.75 288.511C533.067 288.957 533.256 289.146 533.373 289.75C533.774 291.815 533.254 294.968 533.171 297.111C532.949 302.789 532.745 308.468 532.648 314.15C532.049 348.991 530.469 383.831 530.107 418.667C534.427 425.236 536.9 432.88 535.176 440.779C533.756 447.286 529.656 453.661 523.959 457.25C517.579 461.27 510.52 462.01 503.25 460.553C500.549 460.012 498.366 459.022 495.9 457.846C492.731 455.735 489.982 453.445 487.767 450.319C483.781 444.693 482.461 437.698 483.668 430.969C485.249 422.163 489.997 417.471 496.929 412.52C505.747 381.934 512.959 350.765 520.918 319.932C522.726 312.927 524.395 305.884 526.228 298.886C527.237 295.032 527.996 290.87 529.883 287.337Z" fill="#1B1E24"/>
<path d="M528.993 302.798C530.448 305.671 526.963 382.718 526.669 392.026C526.424 399.769 526.426 407.531 526.368 415.277C519.678 410.58 514.293 409.364 506.162 409.461L501.248 410.675L528.993 302.798Z" fill="#FAAF08"/>
<path d="M506.607 413.091C509.57 412.828 512.906 412.798 515.759 413.678L516.5 413.921C518.072 414.422 519.464 415.005 520.868 415.872C526.45 419.319 529.999 424.154 531.479 430.581C532.85 436.532 531.716 442.744 528.326 447.828C524.164 454.069 519.202 456.559 512.11 457.996L506.374 457.958C500.34 457.347 494.778 453.53 491.14 448.807C487.952 444.669 485.984 438.268 486.77 433.017L486.898 432.25C487.397 429.158 488.303 426.25 489.942 423.557C493.83 417.172 499.647 414.694 506.607 413.091Z" fill="#FF5454"/>
<path d="M395.031 336.182C409.2 334.94 423.138 337.821 434.873 346.205C449.061 356.341 459.269 371.801 461.991 389.114C464.718 406.461 461.004 425.519 450.591 439.8C440.576 453.535 426.208 461.384 409.611 463.897C393.913 465.217 380.012 462.057 367.159 452.639C353.276 442.466 344.005 426.661 341.502 409.648C338.983 392.52 343.116 374.939 353.488 361C363.737 347.226 378.114 338.653 395.031 336.182Z" fill="#1B1E24"/>
<path d="M395.759 339.676C410.353 338.306 424.224 341.974 435.75 351.173C449.047 361.785 457.278 377.372 459.107 394.243C460.89 410.691 456.303 427.472 445.85 440.363C436.903 451.398 423.675 458.995 409.497 460.527C394.436 462.389 379.931 458.039 367.906 448.965C354.851 439.114 347.077 423.645 344.915 407.628C342.852 392.355 346.937 375.416 356.315 363.118C366.279 350.053 379.474 341.954 395.759 339.676Z" fill="white"/>
<path d="M411.103 369.109C413.161 369.276 415.251 369.458 417.127 370.402C421.172 372.437 423.696 377.546 424.977 381.627C427.481 389.602 426.755 398.468 422.748 405.849C420.686 409.648 417.323 411.863 413.241 413.015C411.491 412.843 409.526 412.394 407.94 411.638C403.335 409.442 400.502 404.101 399.161 399.374C397.053 391.946 397.948 382.928 401.971 376.313C404.192 372.661 406.942 370.194 411.103 369.109Z" fill="#1C2832"/>
<path d="M609.321 334.705L609.418 334.692C624.885 333.65 641.018 338.928 652.75 349.121C666.326 360.916 674.653 376.353 675.933 394.359C677.185 411.98 671.957 429.583 660.346 443.025C649.348 455.758 633.762 463.465 616.993 464.691C602.229 466.27 585.782 460.2 574.439 451.01C561.653 440.652 552.898 424.376 551.207 407.978C549.277 389.271 554.027 371.95 566.076 357.404C577.159 344.025 592.165 336.398 609.321 334.705Z" fill="#1B1E24"/>
<path d="M612.086 338.224C624.787 338.113 637.065 341.849 647.25 349.58C661.372 360.3 669.889 374.981 672.1 392.552C674.181 409.1 669.181 426.298 658.881 439.401C648.171 453.026 633.271 459.542 616.456 461.477C601.079 461.664 586.913 457.215 575.25 446.889C563.597 436.572 555.306 420.671 554.49 405.007C553.593 387.812 558.024 371.403 569.848 358.448C581.299 345.902 595.108 339.061 612.086 338.224Z" fill="white"/>
<path d="M619.072 369.525C620.862 369.44 622.68 369.296 624.407 369.871C628.472 371.226 631.285 374.915 632.969 378.695C636.186 385.917 636.106 393.65 633.243 400.976C631.375 405.756 628.113 408.598 623.56 410.681C621.655 410.921 619.858 411.049 618 410.442C614.037 409.148 611.162 405.665 609.443 402.014C606.512 395.793 606.05 387.473 608.522 381C610.571 375.633 613.731 371.793 619.072 369.525Z" fill="#1C2832"/>
</g>
<defs>
<linearGradient id="paint0_linear_274_2" x1="611.802" y1="950.377" x2="604.973" y2="747.715" gradientUnits="userSpaceOnUse">
<stop stop-color="#121B2F"/>
<stop offset="1" stop-color="#292E2D"/>
</linearGradient>
<clipPath id="clip0_274_2">
<rect width="1024" height="1024" fill="white"/>
</clipPath>
</defs>
</svg>
