<svg width="696" height="698" viewBox="0 0 696 698" fill="none" xmlns="http://www.w3.org/2000/svg">
<path d="M311.973 65.344L311.301 64.92C310.147 63.333 310.26 59.686 310.208 57.75C309.929 47.177 314.449 36.476 321.762 28.9224C330.871 19.5141 341.801 14.6219 355 14.5716C366.473 14.5278 378.452 19.5962 386.468 27.7594C395.808 37.271 398.943 48.603 398.935 61.591L398.556 60.722C397.168 57.472 396.493 53.964 395.049 50.714C390.746 41.026 381.724 31.8765 371.92 27.8208C360.999 23.3032 348.668 23.4517 337.784 28.036C328.032 32.144 319.123 40.909 315.213 50.797C313.656 54.736 312.744 59.117 312.408 63.337C312.352 64.039 312.178 64.675 311.973 65.344Z" fill="white"/>
<path d="M49.415 436.097C46.215 423.244 44.624 408.397 44.139 395.168C43.502 377.812 43.534 360.275 45.499 343C52.846 278.417 81.849 217.215 126.032 169.702C171.287 121.037 232.178 86.832 298.159 76.727C311.871 74.627 325.75 73.992 339.598 73.496L338.821 73.904C337.126 74.704 334.986 74.574 333.139 74.719C330.344 74.938 327.537 75.194 324.75 75.505C317.818 76.278 310.81 77.189 303.926 78.3C293.065 80.052 282.261 82.547 271.672 85.516C181.913 110.683 107.624 177.23 71.015 262.75C52.692 305.551 43.713 350.928 45.665 397.484C45.996 405.368 46.6 413.163 47.506 421C48.079 425.953 49.455 431.133 49.415 436.097Z" fill="white"/>
<path d="M311.973 65.344C312.178 64.675 312.352 64.039 312.408 63.337C312.744 59.117 313.656 54.736 315.213 50.797C319.123 40.909 328.032 32.144 337.784 28.036C348.668 23.4517 360.999 23.3032 371.92 27.8208C381.724 31.8765 390.746 41.026 395.049 50.714C396.493 53.964 397.168 57.472 398.556 60.722L398.935 61.591L399.18 67.983C380.393 64.729 361.491 63.318 342.428 63.461C332.372 63.537 321.913 63.789 311.973 65.344Z" fill="#FAAF08"/>
<path d="M339.598 73.496C353.43 72.283 368.517 73.656 382.245 75.416C437.266 82.47 490.283 104.085 532.905 139.956C553.198 157.034 571.93 176.344 587.587 197.794C621.646 244.454 640.295 299.625 645.137 356.917C651.691 434.448 625.727 514.827 575.504 574.215C567.136 584.11 558.343 594.004 548.784 602.775C500.714 646.882 434.339 676.849 369.257 682.177C345.971 684.083 322.597 684.12 299.413 680.932C291.879 679.896 284.361 678.158 276.949 676.478C233.153 666.557 190.224 646.129 155.949 616.94C138.098 601.739 121.212 584.78 106.9 566.182C85.786 538.745 70.015 507.676 59.104 474.896C56.035 465.675 53.503 456.503 51.487 447C50.766 443.601 49.661 439.989 49.427 436.532L49.415 436.097C49.455 431.133 48.079 425.953 47.506 421C46.6 413.163 45.996 405.368 45.665 397.484C43.713 350.928 52.692 305.551 71.015 262.75C107.624 177.23 181.913 110.683 271.672 85.516C282.261 82.547 293.065 80.052 303.926 78.3C310.81 77.189 317.818 76.278 324.75 75.505C327.537 75.194 330.344 74.938 333.139 74.719C334.986 74.574 337.126 74.704 338.821 73.904L339.598 73.496Z" fill="#D282FF"/>
<path d="M340.364 119.735C406.564 117.934 469.529 143.715 517.624 188.817C558.067 226.743 585.54 277.404 595.955 331.853C598.193 343.551 600.073 355.766 600.436 367.689C600.816 380.158 600.782 392.839 599.497 405.25C593.819 460.049 569.949 515.038 531.933 555.188C483.832 605.989 418.808 634.144 349.011 636.053C284.97 636.037 219.589 613.194 172.303 569.264C159.929 557.768 148.324 545.393 138.314 531.769C107.812 490.253 90.28 438.423 88.548 386.989C86.255 318.94 112.04 251.562 158.323 201.811C191.135 166.54 234.768 139.466 281.555 127.596C301.116 122.633 320.235 120.446 340.364 119.735Z" fill="#1C2832"/>
<path d="M344.217 126.318L344.639 126.29C405.351 123.09 468.923 146.607 514.367 186.651C528.943 199.495 542.312 213.321 553.922 228.922C584.526 270.046 602.128 320.558 604.983 371.636C608.535 435.18 584.462 503.346 542.093 550.871C510.283 586.551 468.414 613.156 422.319 626.078C402.799 631.55 382.784 634.447 362.574 635.577C297.051 637.924 231.005 613.294 182.478 569.368C131.775 523.473 103.468 459.587 100.251 391.511C97.2229 327.466 121.763 259.008 165.062 211.597C191.768 182.355 224.461 158.376 261.364 143.628C287.905 133.021 315.75 127.568 344.217 126.318Z" fill="#6FB98F"/>
<path d="M227.574 164.11C230.749 163.924 233.033 164.028 235.906 165.617C239.098 167.383 241.108 170.276 242.087 173.733C242.95 176.783 242.307 179.96 240.729 182.676C238.605 186.331 235.955 187.922 231.975 189.069C228.676 189.145 225.84 189.085 222.996 187.185C219.018 184.527 217.796 180.84 216.834 176.445C217.078 175.126 217.317 173.762 217.841 172.52C219.664 168.2 223.395 165.749 227.574 164.11Z" fill="#1B1E24"/>
<path d="M228.588 167.503C229.925 167.453 231.362 167.355 232.668 167.702C234.833 168.277 236.748 170.244 237.839 172.134C238.958 174.074 239.45 177.042 238.703 179.19C237.457 182.767 234.523 184.306 231.369 185.884C229.861 185.77 228.232 185.705 226.792 185.205C224.45 184.393 222.437 182.346 221.454 180.103C220.571 178.09 220.195 175.836 221.075 173.75C222.489 170.397 225.444 168.851 228.588 167.503Z" fill="#FAAF08"/>
<path d="M342.813 598.157C344.876 598.289 347.023 598.443 348.938 599.289C352.319 600.781 354.582 603.409 355.819 606.829C356.935 609.916 356.767 613.37 355.22 616.281C353.019 620.424 349.625 622.019 345.368 623.249C342.458 623.155 339.705 623.017 337.166 621.435C334.218 619.599 332.203 616.887 331.438 613.485C330.638 609.927 331.161 606.658 333.186 603.59C335.543 600.017 338.824 598.963 342.813 598.157Z" fill="#1B1E24"/>
<path d="M341.565 601.511C343.232 601.446 345.032 601.315 346.647 601.817C348.891 602.514 351.196 604.592 352.12 606.75C353.117 609.078 353.251 611.835 352.258 614.17C351 617.128 349.004 618.447 346.114 619.605C344.49 619.667 342.597 619.806 341.034 619.316C338.557 618.541 336.433 616.608 335.365 614.254C334.436 612.207 334.192 609.873 334.996 607.75C336.265 604.398 338.419 602.907 341.565 601.511Z" fill="#FAAF08"/>
<path d="M454.851 566.537C456.658 566.454 458.507 566.302 460.257 566.847C463.931 567.99 467.023 570.49 468.673 573.993C470.078 576.975 470.261 580.176 469.023 583.25C467.248 587.658 463.99 589.65 459.834 591.423C457.394 591.685 454.542 591.872 452.25 590.863C448.818 589.35 446.186 586.063 444.983 582.562C443.879 579.349 444.371 575.664 445.968 572.726C447.943 569.093 451.073 567.645 454.851 566.537Z" fill="#1B1E24"/>
<path d="M456.283 569.584C457.656 569.697 459.189 569.762 460.462 570.323C462.877 571.387 464.69 573.579 465.608 576C466.582 578.569 466.529 580.771 465.278 583.25C463.843 586.094 461.731 587.183 458.857 588.252C456.819 588.195 454.754 588.238 452.911 587.25C450.754 586.092 448.932 583.867 448.273 581.504C447.569 578.976 447.952 576.125 449.308 573.887C450.938 571.199 453.388 570.357 456.283 569.584Z" fill="#FAAF08"/>
<path d="M574.64 365.594C576.575 365.506 578.864 365.212 580.731 365.794L581.25 365.973L582.591 366.444C585.671 367.692 588.171 370.198 589.42 373.278C590.703 376.443 590.702 379.936 589.361 383.073C587.647 387.082 584.745 388.807 580.903 390.357C578.378 390.482 575.655 390.814 573.25 389.882C569.839 388.56 567.211 386.068 565.843 382.656C564.606 379.569 564.712 375.885 566.062 372.852C567.843 368.849 570.743 367.096 574.64 365.594Z" fill="#1B1E24"/>
<path d="M576.122 368.56C577.611 368.502 579.058 368.549 580.5 368.975C582.705 369.626 584.799 371.417 585.803 373.489C586.942 375.838 587.142 379.547 586.145 381.957C584.973 384.789 582.756 386.077 580.067 387.225C578.379 387.186 576.447 387.267 574.801 386.884C572.313 386.305 569.919 383.705 568.869 381.485C567.993 379.634 568.252 376.097 569.078 374.25C570.486 371.103 573.111 369.801 576.122 368.56Z" fill="#FAAF08"/>
<path d="M541.342 481.56C543.842 481.43 545.907 481.599 548.25 482.554C551.344 483.814 554.076 486.278 555.247 489.46C556.399 492.593 556.269 496.683 554.789 499.681C552.802 503.704 549.664 505.385 545.637 506.7C543.369 506.854 540.869 506.818 538.75 505.903C535.113 504.333 532.399 501.614 531.111 497.828C530.065 494.754 530.349 491.574 531.819 488.706C533.927 484.594 537.164 482.897 541.342 481.56Z" fill="#1B1E24"/>
<path d="M541.56 485.025C542.917 485.01 544.377 484.941 545.706 485.248C548.038 485.785 550.362 487.614 551.441 489.75C552.718 492.28 552.492 495.185 551.468 497.75C550.245 500.809 547.859 502.299 544.943 503.501C543.305 503.53 541.658 503.392 540.113 502.806C537.895 501.965 535.926 500.203 534.992 498.005C533.96 495.576 533.873 492.938 534.906 490.49C536.154 487.535 538.769 486.154 541.56 485.025Z" fill="#FAAF08"/>
<path d="M455.574 164.117C458.217 163.825 461.228 163.686 463.75 164.651C466.837 165.832 469.266 168.428 470.584 171.419C471.941 174.499 471.856 178.175 470.583 181.266C468.993 185.123 466.28 187.301 462.528 188.906C459.856 189.227 457.36 189.276 454.75 188.47C451.646 187.512 448.595 184.373 447.315 181.446C445.977 178.385 445.872 174.561 447.226 171.486C448.984 167.49 451.746 165.727 455.574 164.117Z" fill="#1B1E24"/>
<path d="M455.947 167.566C457.788 167.315 459.785 167.171 461.614 167.585C463.838 168.087 465.918 169.75 466.982 171.75C468.191 174.02 468.394 177.35 467.47 179.75C466.307 182.776 464.448 184.169 461.654 185.563C460 185.704 458.04 185.77 456.411 185.456C454.242 185.039 452.328 183.257 451.168 181.469C449.646 179.126 448.977 176.51 449.777 173.751C450.686 170.612 453.203 168.97 455.947 167.566Z" fill="#FAAF08"/>
<path d="M541.584 252.147C543.927 252 546.754 252.149 548.918 253.1C552.266 254.571 554.948 257.546 556.175 260.996C557.302 264.161 557.174 267.243 555.714 270.287C553.765 274.352 550.336 275.906 546.355 277.326C545.238 277.431 544.125 277.511 543.005 277.393C539.128 276.986 535.977 275.11 533.651 271.992C531.819 269.535 530.739 266.157 531.288 263.097L531.408 262.5C531.665 261.176 531.978 259.949 532.613 258.746C534.563 255.047 537.804 253.408 541.584 252.147Z" fill="#1B1E24"/>
<path d="M541.447 255.552C543.167 255.347 545.197 255.178 546.877 255.648C549.401 256.355 551.413 258.348 552.541 260.655C553.722 263.068 553.721 265.381 552.813 267.883C551.695 270.965 549.467 272.375 546.641 273.754C544.982 273.914 543.446 273.93 541.804 273.567C539.321 273.019 537.053 271.011 535.84 268.817C534.642 266.648 534.308 264.377 535.047 262C536.071 258.707 538.505 257.038 541.447 255.552Z" fill="#FAAF08"/>
<path d="M342.425 134.567C344.962 134.424 347.53 134.96 349.815 136.092C352.911 137.626 354.898 140.08 355.996 143.319C357.142 146.702 356.734 150.301 355.014 153.395C352.723 157.517 349.722 159.018 345.407 160.295C343.067 160.393 340.616 160.196 338.466 159.17C335.446 157.727 332.841 154.655 331.782 151.496C330.637 148.082 330.973 144.47 332.712 141.325C334.923 137.328 338.258 135.753 342.425 134.567Z" fill="#1B1E24"/>
<path d="M343.263 137.574C344.466 137.7 345.744 137.795 346.888 138.205C349.249 139.052 351.269 141.108 352.193 143.426C353.275 146.14 353.194 149.116 351.901 151.75C350.451 154.702 348.098 155.808 345.12 156.755C343.606 156.681 341.901 156.655 340.452 156.158C338.482 155.483 336.53 153.711 335.668 151.809C334.431 149.083 334.354 145.815 335.649 143.095C337.262 139.707 339.874 138.649 343.263 137.574Z" fill="#FAAF08"/>
<path d="M230.73 565.136C233.029 565.197 235.41 565.332 237.494 566.386C241.058 568.187 243.505 571.244 244.652 575.071C245.594 578.215 244.851 582.078 243.107 584.817C240.712 588.58 237.628 590.092 233.434 591.022C230.585 590.755 227.978 590.433 225.459 588.931C222.465 587.146 220.491 584.644 219.634 581.266C218.767 577.847 219.381 574.214 221.256 571.23C223.51 567.645 226.748 566.109 230.73 565.136Z" fill="#1B1E24"/>
<path d="M231.28 568.545C232.745 568.588 234.147 568.811 235.5 569.396C238.252 570.585 239.904 572.553 240.883 575.336C241.734 577.754 241.197 580.53 239.979 582.75C238.426 585.581 236.208 586.666 233.263 587.641C231.605 587.531 229.65 587.251 228.129 586.554C225.856 585.512 224.135 583.591 223.321 581.25C222.395 578.587 222.641 575.986 224.008 573.5C225.622 570.567 228.226 569.47 231.28 568.545Z" fill="#FAAF08"/>
<path d="M142.06 254.111C145.173 253.766 148.072 253.735 151 254.995C154.255 256.396 156.651 258.94 157.917 262.25C159.07 265.26 158.824 268.931 157.496 271.839C155.739 275.683 152.934 277.67 149.073 279.06C147.119 279.617 143.92 279.814 141.899 279.316C138.961 278.591 136.089 276.03 134.696 273.401C132.758 269.743 132.563 265.582 133.966 261.729C135.416 257.744 138.378 255.843 142.06 254.111Z" fill="#1B1E24"/>
<path d="M144.125 257.073C145.602 257.049 147.116 256.994 148.534 257.471C151.108 258.338 153.349 260.121 154.414 262.655C155.467 265.158 155.348 268.167 154.227 270.622C152.81 273.724 150.686 275.118 147.568 276.253C146.042 276.341 144.166 276.333 142.693 275.897C140.608 275.281 138.723 273.283 137.75 271.403C136.371 268.738 136.123 265.563 137.211 262.75C138.453 259.539 141.138 258.266 144.125 257.073Z" fill="#FAAF08"/>
<path d="M110.206 364.099C113.092 364.056 115.46 364.003 118.17 365.178C121.396 366.576 123.938 369.346 125.081 372.677C126.119 375.702 125.66 379.682 124.276 382.512C122.366 386.414 119.574 388.143 115.608 389.52C113.207 389.745 110.528 389.819 108.25 388.924C104.585 387.484 101.934 384.607 100.593 380.94C99.423 377.742 99.788 373.675 101.28 370.633C103.191 366.737 106.294 365.366 110.206 364.099Z" fill="#1B1E24"/>
<path d="M110.562 367.515C112.169 367.451 113.892 367.302 115.449 367.791C117.944 368.575 120.495 370.489 121.534 372.945C122.387 374.962 122.274 377.708 121.542 379.75C120.306 383.196 118.201 384.786 114.982 386.339C113.303 386.488 111.57 386.394 109.942 385.92C107.801 385.297 105.717 383.347 104.639 381.429C103.41 379.242 103.069 376.257 103.842 373.853C104.948 370.412 107.494 368.992 110.562 367.515Z" fill="#FAAF08"/>
<path d="M143.298 480.576C146.025 480.414 148.165 480.453 150.75 481.535C154.252 483 156.656 485.456 157.901 489.056C159.022 492.3 158.678 495.903 157.163 498.952C155.108 503.086 152.167 504.799 147.972 506.229C145.55 506.418 143.544 506.391 141.25 505.519C137.94 504.261 135.326 501.755 133.949 498.481C132.371 494.731 132.262 491.206 134.013 487.488C135.891 483.504 139.402 481.931 143.298 480.576Z" fill="#1B1E24"/>
<path d="M142.494 484.073C144.384 483.752 146.372 483.646 148.25 484.13C150.503 484.71 152.761 486.496 153.963 488.476C155.145 490.423 155.363 493.08 154.793 495.25C153.911 498.61 151.54 500.614 148.688 502.329C147.075 502.741 145.476 503.102 143.816 502.724C140.884 502.058 138.661 500.362 137.21 497.72C136.004 495.524 136.001 492.314 136.74 489.981C137.729 486.864 139.801 485.599 142.494 484.073Z" fill="#FAAF08"/>
<path d="M312.022 426.49C313.204 426.444 314.52 426.325 315.68 426.587C321.933 428.003 321.358 434.679 322.469 439.5C322.964 441.647 323.821 443.558 325.05 445.385C328.239 450.131 333.05 453.306 338.688 454.298C343.806 455.199 349.997 454.244 354.231 451.147C360.447 446.6 361.581 441.652 362.701 434.538C363.155 431.657 364.142 429.161 366.75 427.59C368.568 426.496 371.169 426.282 373.151 426.966C375.572 427.802 377.4 429.652 378.436 431.971C380.299 436.139 378.088 443.002 376.669 447.09C374.026 454.615 369.246 460.498 362.623 464.897C354.651 470.192 344.156 472.276 334.761 470.274C325.258 468.249 317.19 463.016 311.844 454.868C308.237 449.372 304.412 439.159 306.15 432.585C306.934 429.618 309.568 427.946 312.022 426.49Z" fill="#1C2832"/>
<path d="M363.883 219.337L366.75 220.511C367.067 220.957 367.256 221.146 367.373 221.75C367.774 223.815 367.254 226.968 367.171 229.111C366.949 234.789 366.745 240.468 366.648 246.15C366.049 280.991 364.469 315.831 364.107 350.667C368.427 357.236 370.9 364.88 369.176 372.779C367.756 379.286 363.656 385.661 357.959 389.25C351.579 393.27 344.52 394.01 337.25 392.553C334.549 392.012 332.366 391.022 329.9 389.846C326.731 387.735 323.982 385.445 321.767 382.319C317.781 376.693 316.461 369.698 317.668 362.969C319.249 354.163 323.997 349.471 330.929 344.52C339.747 313.934 346.959 282.765 354.918 251.932C356.726 244.927 358.395 237.884 360.228 230.886C361.237 227.032 361.996 222.87 363.883 219.337Z" fill="#1B1E24"/>
<path d="M362.993 234.798C364.448 237.671 360.963 314.718 360.669 324.026C360.424 331.769 360.426 339.531 360.368 347.277C353.678 342.58 348.293 341.364 340.162 341.461L335.248 342.675L362.993 234.798Z" fill="#FAAF08"/>
<path d="M340.607 345.091C343.57 344.828 346.906 344.798 349.759 345.678L350.5 345.921C352.072 346.422 353.464 347.005 354.868 347.872C360.45 351.319 363.999 356.154 365.479 362.581C366.85 368.532 365.716 374.744 362.326 379.828C358.164 386.069 353.202 388.559 346.11 389.996L340.374 389.958C334.34 389.347 328.778 385.53 325.14 380.807C321.952 376.669 319.984 370.268 320.77 365.017L320.898 364.25C321.397 361.158 322.303 358.25 323.942 355.557C327.83 349.172 333.647 346.694 340.607 345.091Z" fill="#D282FF"/>
<path d="M229.031 268.182C243.2 266.94 257.138 269.821 268.873 278.205C283.061 288.341 293.269 303.801 295.991 321.114C298.718 338.461 295.004 357.519 284.591 371.8C274.576 385.535 260.208 393.384 243.611 395.897C227.913 397.217 214.012 394.057 201.159 384.639C187.276 374.466 178.005 358.661 175.502 341.648C172.983 324.52 177.116 306.939 187.488 293C197.737 279.226 212.114 270.653 229.031 268.182Z" fill="#1B1E24"/>
<path d="M229.759 271.676C244.353 270.306 258.224 273.974 269.75 283.173C283.047 293.785 291.278 309.372 293.107 326.243C294.89 342.691 290.303 359.472 279.85 372.363C270.903 383.398 257.675 390.995 243.497 392.527C228.436 394.389 213.931 390.039 201.906 380.965C188.851 371.114 181.077 355.645 178.915 339.628C176.852 324.355 180.937 307.416 190.315 295.118C200.279 282.053 213.474 273.954 229.759 271.676Z" fill="white"/>
<path d="M245.103 301.109C247.161 301.276 249.251 301.458 251.127 302.402C255.172 304.437 257.696 309.546 258.977 313.627C261.481 321.602 260.755 330.468 256.748 337.849C254.686 341.648 251.323 343.863 247.241 345.015C245.491 344.843 243.526 344.394 241.94 343.638C237.335 341.442 234.502 336.101 233.161 331.374C231.053 323.946 231.948 314.928 235.971 308.313C238.192 304.661 240.942 302.194 245.103 301.109Z" fill="#1C2832"/>
<path d="M443.321 266.705L443.418 266.692C458.885 265.65 475.018 270.928 486.75 281.121C500.326 292.916 508.653 308.353 509.933 326.359C511.185 343.98 505.957 361.583 494.346 375.025C483.348 387.758 467.762 395.465 450.993 396.691C436.229 398.27 419.782 392.2 408.439 383.01C395.653 372.652 386.898 356.376 385.207 339.978C383.277 321.271 388.027 303.95 400.076 289.404C411.159 276.025 426.165 268.398 443.321 266.705Z" fill="#1B1E24"/>
<path d="M446.086 270.224C458.787 270.113 471.065 273.849 481.25 281.58C495.372 292.3 503.889 306.981 506.1 324.552C508.181 341.1 503.181 358.298 492.881 371.401C482.171 385.026 467.271 391.542 450.456 393.477C435.079 393.664 420.913 389.215 409.25 378.889C397.597 368.572 389.306 352.671 388.49 337.007C387.593 319.812 392.024 303.403 403.848 290.448C415.299 277.902 429.108 271.061 446.086 270.224Z" fill="white"/>
<path d="M453.072 301.525C454.862 301.44 456.68 301.296 458.407 301.871C462.472 303.226 465.285 306.915 466.969 310.695C470.186 317.917 470.106 325.65 467.243 332.976C465.375 337.756 462.113 340.598 457.56 342.681C455.655 342.921 453.858 343.049 452 342.442C448.037 341.148 445.162 337.665 443.443 334.014C440.512 327.793 440.05 319.473 442.522 313C444.571 307.633 447.731 303.793 453.072 301.525Z" fill="#1C2832"/>
</svg>
