<svg width="451" height="56" viewBox="0 0 451 56" fill="none" xmlns="http://www.w3.org/2000/svg">
<path d="M12.0745 10.4147V44.4887H20.5525V10.4147H32.1625V2.36865H0.626465V10.4147H12.0745Z" fill="#FF5050"/>
<path d="M30.7432 31.2045V44.4885H38.8432V31.2045C38.8432 25.9665 43.1092 21.7545 48.2932 21.7545V13.6545C45.9172 13.6545 43.6492 14.0865 41.4892 15.0045C39.3832 15.9225 37.4932 17.1645 35.9272 18.7845C34.3072 20.4045 33.0112 22.2945 32.1472 24.3465C31.2292 26.5065 30.7432 28.8285 30.7432 31.2045Z" fill="#FE5252"/>
<path d="M77.6632 14.0867H69.5632V15.7607C67.4572 14.6807 65.0812 14.0867 62.6512 14.0867C60.5452 14.0867 58.5472 14.5187 56.6572 15.3287C54.8212 16.0847 53.1472 17.2187 51.7432 18.6227C50.3392 20.0267 49.2052 21.6467 48.4492 23.4827C47.6392 25.4267 47.2612 27.4247 47.2612 29.4767C47.2612 31.5827 47.6392 33.5807 48.4492 35.4707C49.2052 37.3067 50.3392 38.9807 51.7432 40.3847C53.1472 41.7887 54.8212 42.9227 56.6572 43.6787C58.5472 44.4887 60.5452 44.8667 62.6512 44.8667C65.0272 44.8667 67.4572 44.3267 69.5632 43.2467V44.4887H77.6632V14.0867ZM66.3232 35.7947C65.1892 36.4427 63.9472 36.7667 62.6512 36.7667C58.6012 36.7667 55.3612 33.5267 55.3612 29.4767C55.3612 25.4807 58.6012 22.1867 62.6512 22.1867C64.0552 22.1867 65.4052 22.6187 66.5932 23.3747C67.7272 24.1307 68.6452 25.1567 69.2392 26.3987C69.6712 27.3707 69.8872 28.3967 69.8872 29.5307C69.8872 30.7727 69.5632 32.0687 68.9152 33.1487C68.3212 34.2287 67.4032 35.1467 66.3232 35.7947Z" fill="#FC5454"/>
<path d="M95.349 44.8667C100.425 44.8667 105.177 42.3827 108.039 38.2247L101.343 33.6347C99.993 35.5787 97.779 36.7667 95.349 36.7667C91.353 36.7667 88.059 33.5267 88.059 29.4767C88.059 25.4807 91.353 22.1867 95.349 22.1867C97.725 22.1867 99.939 23.3747 101.343 25.3187L107.931 20.6207C106.527 18.6767 104.691 17.0027 102.531 15.8687C100.371 14.7347 97.833 14.0867 95.349 14.0867C93.297 14.0867 91.245 14.5187 89.355 15.3287C87.519 16.0847 85.899 17.2187 84.441 18.6227C83.037 20.0267 81.957 21.7007 81.147 23.4827C80.391 25.4267 79.959 27.4247 79.959 29.4767C79.959 31.5827 80.391 33.5807 81.147 35.4707C81.957 37.3067 83.037 38.9807 84.441 40.3847C85.899 41.7887 87.519 42.9227 89.355 43.6787C91.245 44.4887 93.297 44.8667 95.349 44.8667Z" fill="#FB5656"/>
<path d="M121.133 33.3106L128.315 44.4886H137.819L126.803 27.3706L138.521 14.4106H128.099L117.893 25.8046V0.9646H109.739V44.4886H117.893V36.8206L121.133 33.3106Z" fill="#F95858"/>
<path d="M138.013 16.0306V44.4886H146.167V13.3306L138.013 16.0306Z" fill="#F85A5A"/>
<path d="M174.092 18.8927C171.554 16.3007 168.098 14.8967 164.48 14.8967C162.59 14.8967 160.7 15.2747 159.026 16.0307V14.0867H150.926V27.3167C150.872 27.6947 150.872 28.1267 150.872 28.5047H150.926V44.4887H159.026V27.7487C159.404 25.0487 161.726 22.9967 164.48 22.9967C167.504 22.9967 169.988 25.4807 169.988 28.5047V44.4887H178.088V28.5047C178.088 24.8867 176.684 21.4847 174.092 18.8927Z" fill="#F65C5C"/>
<path d="M205.961 18.4607C203.099 15.5987 199.319 14.0327 195.269 14.0327C191.219 14.0327 187.439 15.5987 184.577 18.4607C181.715 21.3227 180.149 25.1567 180.149 29.1527C180.149 33.2027 181.715 37.0367 184.577 39.8987C187.439 42.7607 191.219 44.3267 195.269 44.3267C197.645 44.3267 199.967 43.7867 202.073 42.7067C201.209 45.6767 198.509 47.8367 195.269 47.8367C193.433 47.8367 191.759 47.1887 190.409 45.9467L184.847 51.7787C187.655 54.4787 191.381 55.9907 195.269 55.9907C199.319 55.9907 203.099 54.3707 205.961 51.5087C208.823 48.7007 210.389 44.8667 210.389 40.8167V29.1527C210.389 25.1567 208.823 21.3227 205.961 18.4607ZM195.269 36.2267C191.381 36.2267 188.249 33.0407 188.249 29.1527C188.249 25.3187 191.381 22.1327 195.269 22.1327C199.157 22.1327 202.343 25.2647 202.343 29.1527C202.289 33.0407 199.157 36.2267 195.269 36.2267Z" fill="#F55E5E"/>
<path d="M227.972 44.8127C231.806 44.8127 235.424 43.6787 238.07 41.6807C239.528 40.5467 240.662 39.1967 241.472 37.6307C242.282 35.9567 242.714 34.1207 242.714 32.1227C242.714 28.4507 241.472 25.5887 238.826 23.4827C236.666 21.6467 233.75 20.5127 230.672 19.3247C230.348 19.1627 229.97 19.0547 229.646 18.8927C227.432 18.0827 225.38 17.2727 224.084 16.4087C223.22 15.7607 222.626 15.0587 222.626 13.8167C222.68 11.0627 225.326 10.0907 227.594 10.0907C230.024 10.0907 232.94 11.3327 235.64 13.5467L237.152 14.7887L242.336 8.03872L240.878 6.90472C236.882 3.66472 232.292 1.99072 227.594 1.99072C223.976 1.99072 220.574 3.17872 218.036 5.39272C215.444 7.66072 213.986 10.6847 213.986 14.0327C213.986 15.9227 214.418 17.7047 215.174 19.2167C215.93 20.6207 216.902 21.8087 218.306 22.8887C220.682 24.7787 223.598 25.9667 226.676 27.1007C226.838 27.1547 227.054 27.2087 227.27 27.3167C229.484 28.1267 231.374 28.8827 232.562 29.7467C233.642 30.5027 234.02 31.3667 234.02 32.6627C234.02 33.8507 233.588 34.7687 232.616 35.4707C231.59 36.2267 229.916 36.6587 228.026 36.6587C226.406 36.6587 224.732 36.2807 223.166 35.5247C221.546 34.7687 220.034 33.5807 218.9 32.1767L217.496 30.3947L211.88 37.0367L213.014 38.2787C216.956 42.4907 222.302 44.8127 227.972 44.8127Z" fill="#F35F5F"/>
<path d="M258.541 44.8126C262.105 44.8126 265.507 43.4086 268.045 40.8706C270.637 38.3326 272.041 34.9306 272.041 31.3126V14.4106H263.941V31.3126C263.941 34.3366 261.511 36.7126 258.541 36.7126C255.517 36.7126 253.141 34.3366 253.141 31.3126V14.4106H245.041V31.3126C245.041 34.9306 246.445 38.3326 248.983 40.8706C251.521 43.4086 254.923 44.8126 258.541 44.8126Z" fill="#F26161"/>
<path d="M316.186 18.3527C313.702 15.8687 310.462 14.5187 307.006 14.5187C303.604 14.5187 300.472 15.8147 298.042 18.0827C295.612 15.8147 292.48 14.5187 289.132 14.5187C287.404 14.5187 285.73 14.8427 284.218 15.4907V14.0867H276.118V44.4887H284.218V27.5327C284.218 24.8327 286.432 22.6187 289.132 22.6187C291.778 22.6187 293.992 24.8327 293.992 27.5327V44.4887H302.092V27.5327C302.092 24.8327 304.306 22.6187 307.006 22.6187C309.652 22.6187 311.866 24.8327 311.866 27.5327V44.4887H319.966V27.5327C319.966 24.0767 318.616 20.7827 316.186 18.3527Z" fill="#F06363"/>
<path d="M363.963 18.3527C361.479 15.8687 358.239 14.5187 354.783 14.5187C351.381 14.5187 348.249 15.8147 345.819 18.0827C343.389 15.8147 340.257 14.5187 336.909 14.5187C335.181 14.5187 333.507 14.8427 331.995 15.4907V14.0867H323.895V44.4887H331.995V27.5327C331.995 24.8327 334.209 22.6187 336.909 22.6187C339.555 22.6187 341.769 24.8327 341.769 27.5327V44.4887H349.869V27.5327C349.869 24.8327 352.083 22.6187 354.783 22.6187C357.429 22.6187 359.643 24.8327 359.643 27.5327V44.4887H367.743V27.5327C367.743 24.0767 366.393 20.7827 363.963 18.3527Z" fill="#EF6565"/>
<path d="M400.292 14.0867H392.192V15.7607C390.086 14.6807 387.71 14.0867 385.28 14.0867C383.174 14.0867 381.176 14.5187 379.286 15.3287C377.45 16.0847 375.776 17.2187 374.372 18.6227C372.968 20.0267 371.834 21.6467 371.078 23.4827C370.268 25.4267 369.89 27.4247 369.89 29.4767C369.89 31.5827 370.268 33.5807 371.078 35.4707C371.834 37.3067 372.968 38.9807 374.372 40.3847C375.776 41.7887 377.45 42.9227 379.286 43.6787C381.176 44.4887 383.174 44.8667 385.28 44.8667C387.656 44.8667 390.086 44.3267 392.192 43.2467V44.4887H400.292V14.0867ZM388.952 35.7947C387.818 36.4427 386.576 36.7667 385.28 36.7667C381.23 36.7667 377.99 33.5267 377.99 29.4767C377.99 25.4807 381.23 22.1867 385.28 22.1867C386.684 22.1867 388.034 22.6187 389.222 23.3747C390.356 24.1307 391.274 25.1567 391.868 26.3987C392.3 27.3707 392.516 28.3967 392.516 29.5307C392.516 30.7727 392.192 32.0687 391.544 33.1487C390.95 34.2287 390.032 35.1467 388.952 35.7947Z" fill="#ED6767"/>
<path d="M404.208 31.2045V44.4885H412.308V31.2045C412.308 25.9665 416.574 21.7545 421.758 21.7545V13.6545C419.382 13.6545 417.114 14.0865 414.954 15.0045C412.848 15.9225 410.958 17.1645 409.392 18.7845C407.772 20.4045 406.476 22.2945 405.612 24.3465C404.694 26.5065 404.208 28.8285 404.208 31.2045Z" fill="#EC6969"/>
<path d="M431.398 41.6266L425.944 55.1806H434.584L451 14.4106H442.306L435.556 31.4746L428.266 14.4106H419.356L431.398 41.6266Z" fill="#EA6B6B"/>
</svg>
